<svg width="322" height="13" viewBox="0 0 322 13" fill="none" xmlns="http://www.w3.org/2000/svg">
<path d="M2.2 0.4H0.168V12H2.2V0.4ZM12.495 8.144C12.143 9.728 11.023 10.544 9.455 10.544C7.599 10.544 6.175 8.976 6.175 6.16C6.175 3.36 7.631 1.856 9.471 1.856C10.975 1.856 12.111 2.688 12.463 4.256H14.415C13.951 1.664 12.111 0.191999 9.535 0.191999C6.175 0.191999 4.079 2.512 4.079 6.16C4.079 9.792 6.047 12.208 9.439 12.208C12.111 12.208 13.967 10.736 14.447 8.144H12.495ZM17.9094 6.192C17.9094 3.376 19.4294 1.856 21.3494 1.856C23.2694 1.856 24.7894 3.376 24.7894 6.192C24.7894 9.008 23.2694 10.544 21.3494 10.544C19.4294 10.544 17.9094 9.008 17.9094 6.192ZM26.8854 6.192C26.8854 2.624 24.7574 0.191999 21.3494 0.191999C17.9414 0.191999 15.8134 2.624 15.8134 6.192C15.8134 9.76 17.9414 12.208 21.3494 12.208C24.7574 12.208 26.8854 9.76 26.8854 6.192ZM38.3618 12V0.4H36.3938V9.664L31.4818 0.4H28.7618V12H30.7298V2.736L35.6418 12H38.3618ZM45.0193 7.008C46.1233 7.216 47.4033 7.616 47.4033 8.8C47.4033 9.92 46.2993 10.544 44.9233 10.544C43.3233 10.544 42.2993 9.744 41.9473 8.16H39.9473C40.1873 10.704 42.0753 12.208 44.8273 12.208C47.1153 12.208 49.4353 11.008 49.4353 8.672C49.4353 6.336 47.4993 5.6 45.4673 5.2L44.0433 4.928C43.0513 4.736 42.3153 4.288 42.3153 3.392C42.3153 2.256 43.6432 1.856 44.5393 1.856C45.6753 1.856 46.8913 2.256 47.2273 3.648H49.1953C48.7313 1.232 46.9393 0.191999 44.6513 0.191999C42.5233 0.191999 40.2673 1.28 40.2673 3.456C40.2673 5.424 41.7873 6.368 43.6113 6.736L45.0193 7.008ZM61.0103 8.544V6.832H50.4183V8.544H61.0103ZM67.7623 2.88V7.632H64.1143L67.7623 2.88ZM71.7143 7.632H69.6663V0.4H67.7783L62.0343 7.696V9.28H67.7623V12H69.6663V9.28H71.7143V7.632ZM74.8361 5.568V3.392H72.6601V5.568H74.8361ZM74.8361 12V9.824H72.6601V12H74.8361ZM80.1679 12V0.4H78.7599C78.1679 1.664 77.3519 1.808 75.6719 1.856V3.168H78.2639V12H80.1679ZM86.431 0.191999C83.999 0.191999 82.463 1.44 82.463 3.168C82.463 4.16 82.927 5.232 83.951 5.808C82.575 6.496 82.111 7.616 82.111 8.704C82.111 10.992 83.999 12.208 86.431 12.208C88.863 12.208 90.751 10.992 90.751 8.704C90.751 7.616 90.287 6.512 88.911 5.808C89.967 5.184 90.399 4.16 90.399 3.168C90.399 1.44 88.847 0.191999 86.431 0.191999ZM86.431 6.544C87.855 6.544 88.767 7.344 88.767 8.64C88.767 9.952 87.855 10.736 86.431 10.736C85.007 10.736 84.095 9.952 84.095 8.64C84.095 7.344 85.007 6.544 86.431 6.544ZM88.511 3.408C88.511 4.512 87.695 5.248 86.431 5.248C85.183 5.248 84.335 4.512 84.335 3.408C84.335 2.304 85.183 1.648 86.431 1.648C87.695 1.648 88.511 2.304 88.511 3.408ZM94.5236 5.568V3.392H92.3476V5.568H94.5236ZM94.5236 12V9.824H92.3476V12H94.5236ZM100.127 0.191999C97.5834 0.191999 95.9514 1.776 95.9834 4.112H97.8874C97.8874 2.304 98.9434 1.648 100.047 1.648C101.183 1.648 101.919 2.304 101.919 3.424C101.919 5.36 99.5994 7.408 95.7274 10.432V12H104.175V10.336H98.0954C101.599 7.904 103.903 5.664 103.903 3.264C103.903 1.296 102.271 0.191999 100.127 0.191999ZM109.331 10.736C107.811 10.736 107.075 9.792 106.914 8.448H105.075C105.219 10.448 106.595 12.208 109.299 12.208C111.603 12.208 113.587 10.832 113.587 8.24C113.587 5.632 111.747 4.272 109.763 4.272C108.723 4.272 107.923 4.544 107.363 4.992L107.731 2.08H113.107V0.4H106.163L105.395 6.848L107.187 6.944C107.427 6.272 108.211 5.728 109.283 5.728C110.435 5.728 111.619 6.544 111.619 8.272C111.619 9.824 110.611 10.736 109.331 10.736ZM119.074 0.4V12H121.106V7.616H122.93C125.666 7.616 127.826 6.976 127.826 4.048C127.826 0.815999 125.442 0.4 122.898 0.4H119.074ZM122.898 2.032C124.322 2.032 125.714 2.176 125.714 4.064C125.714 5.728 124.53 5.952 122.994 5.952H121.106V2.032H122.898ZM136.16 12L139.104 2.608V12H141.088V0.4H137.936L135.136 9.648L132.32 0.4H129.168V12H131.152V2.608L134.096 12H136.16ZM153.354 8.544V6.832H142.762V8.544H153.354ZM159.347 7.008C160.451 7.216 161.731 7.616 161.731 8.8C161.731 9.92 160.627 10.544 159.251 10.544C157.651 10.544 156.627 9.744 156.275 8.16H154.275C154.515 10.704 156.403 12.208 159.155 12.208C161.443 12.208 163.763 11.008 163.763 8.672C163.763 6.336 161.827 5.6 159.795 5.2L158.371 4.928C157.379 4.736 156.643 4.288 156.643 3.392C156.643 2.256 157.971 1.856 158.867 1.856C160.003 1.856 161.219 2.256 161.555 3.648H163.523C163.059 1.232 161.267 0.191999 158.979 0.191999C156.851 0.191999 154.595 1.28 154.595 3.456C154.595 5.424 156.115 6.368 157.939 6.736L159.347 7.008ZM165.402 0.4V12H167.434V7.616H169.258C171.994 7.616 174.154 6.976 174.154 4.048C174.154 0.815999 171.77 0.4 169.226 0.4H165.402ZM169.226 2.032C170.65 2.032 172.042 2.176 172.042 4.064C172.042 5.728 170.858 5.952 169.322 5.952H167.434V2.032H169.226ZM173.219 12H175.299L176.195 9.424H180.899L181.811 12H184.035L179.683 0.4H177.539L173.219 12ZM178.531 2.752L180.291 7.728H176.787L178.531 2.752ZM186.634 12H188.666V2.096H192.314V0.4H182.986V2.096H186.634V12ZM195.591 0.4H193.559V12H195.591V0.4ZM196.766 12H198.846L199.742 9.424H204.446L205.358 12H207.582L203.23 0.4H201.086L196.766 12ZM202.078 2.752L203.838 7.728H200.334L202.078 2.752ZM210.778 0.4H208.746V12H216.618V10.288H210.778V0.4ZM220.312 12H222.393L223.289 9.424H227.993L228.905 12H231.129L226.777 0.4H224.633L220.312 12ZM225.625 2.752L227.385 7.728H223.881L225.625 2.752ZM231.758 0.4V7.168C231.758 10.912 233.182 12.208 236.51 12.208C239.886 12.208 241.246 10.768 241.246 7.104V0.4H239.214V7.184C239.214 9.312 238.638 10.544 236.51 10.544C234.35 10.544 233.79 9.376 233.79 7.248V0.4H231.758ZM250.938 6.192C250.938 9.872 248.698 10.368 246.474 10.368H245.434V2.032H246.474C248.698 2.032 250.938 2.528 250.938 6.192ZM243.402 0.4V12H246.57C250.25 12 253.05 10.72 253.05 6.192C253.05 1.664 250.25 0.4 246.57 0.4H243.402ZM256.934 0.4H254.902V12H256.934V0.4ZM260.909 6.192C260.909 3.376 262.429 1.856 264.349 1.856C266.269 1.856 267.789 3.376 267.789 6.192C267.789 9.008 266.269 10.544 264.349 10.544C262.429 10.544 260.909 9.008 260.909 6.192ZM269.885 6.192C269.885 2.624 267.757 0.191999 264.349 0.191999C260.941 0.191999 258.813 2.624 258.813 6.192C258.813 9.76 260.941 12.208 264.349 12.208C267.757 12.208 269.885 9.76 269.885 6.192ZM274.297 0.4L278.313 12H280.489L284.457 0.4H282.313L279.449 9.6L276.505 0.4H274.297ZM287.669 0.4H285.637V12H287.669V0.4ZM297.548 6.192C297.548 9.872 295.308 10.368 293.084 10.368H292.044V2.032H293.084C295.308 2.032 297.548 2.528 297.548 6.192ZM290.012 0.4V12H293.18C296.86 12 299.66 10.72 299.66 6.192C299.66 1.664 296.86 0.4 293.18 0.4H290.012ZM301.512 12H309.72V10.288H303.544V6.88H309.384V5.2H303.544V2.096H309.72V0.4H301.512V12ZM313.019 6.192C313.019 3.376 314.539 1.856 316.459 1.856C318.379 1.856 319.899 3.376 319.899 6.192C319.899 9.008 318.379 10.544 316.459 10.544C314.539 10.544 313.019 9.008 313.019 6.192ZM321.995 6.192C321.995 2.624 319.867 0.191999 316.459 0.191999C313.051 0.191999 310.923 2.624 310.923 6.192C310.923 9.76 313.051 12.208 316.459 12.208C319.867 12.208 321.995 9.76 321.995 6.192Z" fill="#FEFEFB"/>
</svg>
