<svg width="81" height="16" viewBox="0 0 81 16" fill="none" xmlns="http://www.w3.org/2000/svg">
<path d="M6.51225 3.88V8.632H2.86425L6.51225 3.88ZM10.4643 8.632H8.41625V1.4H6.52825L0.78425 8.696V10.28H6.51225V13H8.41625V10.28H10.4643V8.632ZM13.5861 6.568V4.392H11.4101V6.568H13.5861ZM13.5861 13V10.824H11.4101V13H13.5861ZM18.9179 13V1.4H17.5099C16.9179 2.664 16.1019 2.808 14.4219 2.856V4.168H17.0139V13H18.9179ZM25.181 1.192C22.749 1.192 21.213 2.44 21.213 4.168C21.213 5.16 21.677 6.232 22.701 6.808C21.325 7.496 20.861 8.616 20.861 9.704C20.861 11.992 22.749 13.208 25.181 13.208C27.613 13.208 29.501 11.992 29.501 9.704C29.501 8.616 29.037 7.512 27.661 6.808C28.717 6.184 29.149 5.16 29.149 4.168C29.149 2.44 27.597 1.192 25.181 1.192ZM25.181 7.544C26.605 7.544 27.517 8.344 27.517 9.64C27.517 10.952 26.605 11.736 25.181 11.736C23.757 11.736 22.845 10.952 22.845 9.64C22.845 8.344 23.757 7.544 25.181 7.544ZM27.261 4.408C27.261 5.512 26.445 6.248 25.181 6.248C23.933 6.248 23.085 5.512 23.085 4.408C23.085 3.304 23.933 2.648 25.181 2.648C26.445 2.648 27.261 3.304 27.261 4.408ZM33.2736 6.568V4.392H31.0976V6.568H33.2736ZM33.2736 13V10.824H31.0976V13H33.2736ZM38.8774 1.192C36.3334 1.192 34.7014 2.776 34.7334 5.112H36.6374C36.6374 3.304 37.6934 2.648 38.7974 2.648C39.9334 2.648 40.6694 3.304 40.6694 4.424C40.6694 6.36 38.3494 8.408 34.4774 11.432V13H42.9254V11.336H36.8454C40.3494 8.904 42.6534 6.664 42.6534 4.264C42.6534 2.296 41.0214 1.192 38.8774 1.192ZM48.0805 11.736C46.5605 11.736 45.8245 10.792 45.6645 9.448H43.8245C43.9685 11.448 45.3445 13.208 48.0485 13.208C50.3525 13.208 52.3365 11.832 52.3365 9.24C52.3365 6.632 50.4965 5.272 48.5125 5.272C47.4725 5.272 46.6725 5.544 46.1125 5.992L46.4805 3.08H51.8565V1.4H44.9125L44.1445 7.848L45.9365 7.944C46.1765 7.272 46.9605 6.728 48.0325 6.728C49.1845 6.728 50.3685 7.544 50.3685 9.272C50.3685 10.824 49.3605 11.736 48.0805 11.736ZM57.8243 1.4V13H59.8563V8.616H61.6803C64.4163 8.616 66.5763 7.976 66.5763 5.048C66.5763 1.816 64.1923 1.4 61.6483 1.4H57.8243ZM61.6483 3.032C63.0723 3.032 64.4643 3.176 64.4643 5.064C64.4643 6.728 63.2803 6.952 61.7443 6.952H59.8563V3.032H61.6483ZM74.91 13L77.854 3.608V13H79.838V1.4H76.686L73.886 10.648L71.07 1.4H67.918V13H69.902V3.608L72.846 13H74.91Z" fill="#FEFEFB"/>
</svg>
