<svg width="1440" height="900" viewBox="0 0 1440 900" fill="none" xmlns="http://www.w3.org/2000/svg">
<rect width="1440" height="900" fill="black"/>
<rect width="1440" height="900" fill="url(#paint0_linear)"/>
<path d="M1246.16 45H1248.11L1248.95 42.585H1253.36L1254.21 45H1256.3L1252.22 34.125H1250.21L1246.16 45ZM1251.14 36.33L1252.79 40.995H1249.5L1251.14 36.33ZM1257.69 45H1262.05C1264.27 45 1266.12 44.115 1266.12 41.775C1266.12 40.335 1265.38 39.63 1264.48 39.225C1265.13 38.835 1265.7 37.92 1265.7 36.9C1265.7 34.665 1263.76 34.125 1261.78 34.125H1257.69V45ZM1259.59 40.125H1262.02C1263.48 40.125 1264.15 40.665 1264.15 41.775C1264.15 42.855 1263.48 43.47 1262.13 43.47H1259.59V40.125ZM1259.59 35.655H1261.96C1263.04 35.655 1263.76 36.15 1263.76 37.11C1263.76 38.175 1263.07 38.67 1261.96 38.67H1259.59V35.655ZM1269.52 39.555C1269.52 36.915 1270.95 35.49 1272.75 35.49C1274.55 35.49 1275.97 36.915 1275.97 39.555C1275.97 42.195 1274.55 43.635 1272.75 43.635C1270.95 43.635 1269.52 42.195 1269.52 39.555ZM1277.94 39.555C1277.94 36.21 1275.94 33.93 1272.75 33.93C1269.55 33.93 1267.56 36.21 1267.56 39.555C1267.56 42.9 1269.55 45.195 1272.75 45.195C1275.94 45.195 1277.94 42.9 1277.94 39.555ZM1279.83 34.125V40.47C1279.83 43.98 1281.17 45.195 1284.29 45.195C1287.45 45.195 1288.73 43.845 1288.73 40.41V34.125H1286.82V40.485C1286.82 42.48 1286.28 43.635 1284.29 43.635C1282.26 43.635 1281.74 42.54 1281.74 40.545V34.125H1279.83ZM1293.45 45H1295.35V35.715H1298.77V34.125H1290.03V35.715H1293.45V45Z" fill="#FEFEFB"/>
<path d="M1356.31 40.32C1357.35 40.515 1358.55 40.89 1358.55 42C1358.55 43.05 1357.51 43.635 1356.22 43.635C1354.72 43.635 1353.76 42.885 1353.43 41.4H1351.56C1351.78 43.785 1353.55 45.195 1356.13 45.195C1358.28 45.195 1360.45 44.07 1360.45 41.88C1360.45 39.69 1358.64 39 1356.73 38.625L1355.4 38.37C1354.47 38.19 1353.78 37.77 1353.78 36.93C1353.78 35.865 1355.02 35.49 1355.86 35.49C1356.93 35.49 1358.07 35.865 1358.38 37.17H1360.23C1359.79 34.905 1358.11 33.93 1355.97 33.93C1353.97 33.93 1351.86 34.95 1351.86 36.99C1351.86 38.835 1353.28 39.72 1354.99 40.065L1356.31 40.32ZM1369.38 34.125V38.625H1364.19V34.125H1362.29V45H1364.19V40.2H1369.38V45H1371.29V34.125H1369.38ZM1372.69 45H1374.64L1375.48 42.585H1379.89L1380.74 45H1382.83L1378.75 34.125H1376.74L1372.69 45ZM1377.67 36.33L1379.32 40.995H1376.03L1377.67 36.33ZM1390.83 45H1392.98L1390.49 40.065C1391.84 39.6 1392.53 38.655 1392.53 37.26C1392.53 34.845 1390.89 34.125 1387.68 34.125H1384.22V45H1386.12V40.425H1387.97C1388.16 40.425 1388.36 40.425 1388.54 40.41L1390.83 45ZM1387.95 35.655C1389.45 35.655 1390.58 35.85 1390.58 37.275C1390.58 38.58 1389.65 38.91 1388.01 38.91H1386.12V35.655H1387.95ZM1394.7 45H1402.39V43.395H1396.6V40.2H1402.08V38.625H1396.6V35.715H1402.39V34.125H1394.7V45Z" fill="#FEFEFB"/>
<circle cx="55" cy="40" r="15" fill="#FEFEFB"/>
<path d="M1205.35 864L1208.11 855.195V864H1209.97V853.125H1207.02L1204.39 861.795L1201.75 853.125H1198.8V864H1200.66V855.195L1203.42 864H1205.35ZM1211.36 864H1213.31L1214.15 861.585H1218.56L1219.41 864H1221.5L1217.42 853.125H1215.41L1211.36 864ZM1216.34 855.33L1217.99 859.995H1214.7L1216.34 855.33ZM1229.96 858.555C1229.96 862.005 1227.86 862.47 1225.77 862.47H1224.8V854.655H1225.77C1227.86 854.655 1229.96 855.12 1229.96 858.555ZM1222.89 853.125V864H1225.86C1229.31 864 1231.94 862.8 1231.94 858.555C1231.94 854.31 1229.31 853.125 1225.86 853.125H1222.89ZM1233.97 864H1241.67V862.395H1235.88V859.2H1241.35V857.625H1235.88V854.715H1241.67V853.125H1233.97V864ZM1253.99 853.125H1251.79L1250.06 861.525L1248.32 853.125H1246.25L1248.8 864H1251.08L1252.88 855.66L1254.71 864H1256.96L1259.5 853.125H1257.5L1255.85 861.54L1253.99 853.125ZM1262.91 853.125H1261.01V864H1262.91V853.125ZM1267.81 864H1269.71V854.715H1273.13V853.125H1264.39V854.715H1267.81V864ZM1281.69 853.125V857.625H1276.5V853.125H1274.6V864H1276.5V859.2H1281.69V864H1283.6V853.125H1281.69ZM1293.9 859.32C1294.93 859.515 1296.13 859.89 1296.13 861C1296.13 862.05 1295.1 862.635 1293.81 862.635C1292.31 862.635 1291.35 861.885 1291.02 860.4H1289.14C1289.37 862.785 1291.14 864.195 1293.72 864.195C1295.86 864.195 1298.04 863.07 1298.04 860.88C1298.04 858.69 1296.22 858 1294.32 857.625L1292.98 857.37C1292.05 857.19 1291.36 856.77 1291.36 855.93C1291.36 854.865 1292.61 854.49 1293.45 854.49C1294.51 854.49 1295.65 854.865 1295.97 856.17H1297.81C1297.38 853.905 1295.7 852.93 1293.55 852.93C1291.56 852.93 1289.44 853.95 1289.44 855.99C1289.44 857.835 1290.87 858.72 1292.58 859.065L1293.9 859.32ZM1309.88 858.555C1309.88 855.21 1307.88 852.93 1304.69 852.93C1301.49 852.93 1299.5 855.21 1299.5 858.555C1299.5 861.9 1301.49 864.195 1304.69 864.195C1305.54 864.195 1306.32 864.03 1306.98 863.73L1308.36 865.365L1309.53 864.39L1308.24 862.86C1309.29 861.87 1309.88 860.37 1309.88 858.555ZM1301.46 858.555C1301.46 855.915 1302.89 854.49 1304.69 854.49C1306.49 854.49 1307.91 855.915 1307.91 858.555C1307.91 859.8 1307.58 860.775 1307.07 861.465L1306.14 860.355L1304.99 861.33L1305.87 862.395C1305.51 862.56 1305.11 862.635 1304.69 862.635C1302.89 862.635 1301.46 861.195 1301.46 858.555ZM1311.77 853.125V859.47C1311.77 862.98 1313.11 864.195 1316.23 864.195C1319.39 864.195 1320.67 862.845 1320.67 859.41V853.125H1318.76V859.485C1318.76 861.48 1318.22 862.635 1316.23 862.635C1314.2 862.635 1313.68 861.54 1313.68 859.545V853.125H1311.77ZM1321.56 864H1323.51L1324.35 861.585H1328.76L1329.61 864H1331.7L1327.62 853.125H1325.61L1321.56 864ZM1326.54 855.33L1328.19 859.995H1324.9L1326.54 855.33ZM1339.7 864H1341.85L1339.36 859.065C1340.71 858.6 1341.4 857.655 1341.4 856.26C1341.4 853.845 1339.76 853.125 1336.55 853.125H1333.09V864H1334.99V859.425H1336.84C1337.03 859.425 1337.23 859.425 1337.41 859.41L1339.7 864ZM1336.82 854.655C1338.32 854.655 1339.45 854.85 1339.45 856.275C1339.45 857.58 1338.52 857.91 1336.88 857.91H1334.99V854.655H1336.82ZM1343.57 864H1351.26V862.395H1345.47V859.2H1350.95V857.625H1345.47V854.715H1351.26V853.125H1343.57V864ZM1357.15 859.32C1358.18 859.515 1359.38 859.89 1359.38 861C1359.38 862.05 1358.35 862.635 1357.06 862.635C1355.56 862.635 1354.6 861.885 1354.27 860.4H1352.39C1352.62 862.785 1354.39 864.195 1356.97 864.195C1359.11 864.195 1361.29 863.07 1361.29 860.88C1361.29 858.69 1359.47 858 1357.57 857.625L1356.23 857.37C1355.3 857.19 1354.61 856.77 1354.61 855.93C1354.61 854.865 1355.86 854.49 1356.7 854.49C1357.76 854.49 1358.9 854.865 1359.22 856.17H1361.06C1360.63 853.905 1358.95 852.93 1356.8 852.93C1354.81 852.93 1352.69 853.95 1352.69 855.99C1352.69 857.835 1354.12 858.72 1355.83 859.065L1357.15 859.32ZM1363.12 853.125V864H1365.03V859.89H1366.74C1369.3 859.89 1371.33 859.29 1371.33 856.545C1371.33 853.515 1369.09 853.125 1366.71 853.125H1363.12ZM1366.71 854.655C1368.04 854.655 1369.35 854.79 1369.35 856.56C1369.35 858.12 1368.24 858.33 1366.8 858.33H1365.03V854.655H1366.71ZM1370.75 864H1372.7L1373.54 861.585H1377.95L1378.81 864H1380.89L1376.81 853.125H1374.8L1370.75 864ZM1375.73 855.33L1377.38 859.995H1374.1L1375.73 855.33ZM1389.14 860.385C1388.81 861.87 1387.76 862.635 1386.29 862.635C1384.55 862.635 1383.21 861.165 1383.21 858.525C1383.21 855.9 1384.58 854.49 1386.3 854.49C1387.71 854.49 1388.78 855.27 1389.11 856.74H1390.94C1390.5 854.31 1388.78 852.93 1386.36 852.93C1383.21 852.93 1381.25 855.105 1381.25 858.525C1381.25 861.93 1383.09 864.195 1386.27 864.195C1388.78 864.195 1390.52 862.815 1390.97 860.385H1389.14ZM1392.87 864H1400.56V862.395H1394.77V859.2H1400.25V857.625H1394.77V854.715H1400.56V853.125H1392.87V864Z" fill="#FEFEFB"/>
<path d="M196.495 864H198.4V854.715H201.82V853.125H193.075V854.715H196.495V864ZM203.287 864H210.982V862.395H205.192V859.2H210.667V857.625H205.192V854.715H210.982V853.125H203.287V864ZM219.43 864H221.575L219.085 859.065C220.435 858.6 221.125 857.655 221.125 856.26C221.125 853.845 219.49 853.125 216.28 853.125H212.815V864H214.72V859.425H216.565C216.76 859.425 216.955 859.425 217.135 859.41L219.43 864ZM216.55 854.655C218.05 854.655 219.175 854.85 219.175 856.275C219.175 857.58 218.245 857.91 216.61 857.91H214.72V854.655H216.55ZM229.851 864L232.611 855.195V864H234.471V853.125H231.516L228.891 861.795L226.251 853.125H223.296V864H225.156V855.195L227.916 864H229.851ZM241.005 859.32C242.04 859.515 243.24 859.89 243.24 861C243.24 862.05 242.205 862.635 240.915 862.635C239.415 862.635 238.455 861.885 238.125 860.4H236.25C236.475 862.785 238.245 864.195 240.825 864.195C242.97 864.195 245.145 863.07 245.145 860.88C245.145 858.69 243.33 858 241.425 857.625L240.09 857.37C239.16 857.19 238.47 856.77 238.47 855.93C238.47 854.865 239.715 854.49 240.555 854.49C241.62 854.49 242.76 854.865 243.075 856.17H244.92C244.485 853.905 242.805 852.93 240.66 852.93C238.665 852.93 236.55 853.95 236.55 855.99C236.55 857.835 237.975 858.72 239.685 859.065L241.005 859.32ZM252.269 858.555C252.269 855.915 253.694 854.49 255.494 854.49C257.294 854.49 258.719 855.915 258.719 858.555C258.719 861.195 257.294 862.635 255.494 862.635C253.694 862.635 252.269 861.195 252.269 858.555ZM260.684 858.555C260.684 855.21 258.689 852.93 255.494 852.93C252.299 852.93 250.304 855.21 250.304 858.555C250.304 861.9 252.299 864.195 255.494 864.195C258.689 864.195 260.684 861.9 260.684 858.555ZM262.743 864H264.648V859.2H270.003V857.625H264.648V854.715H270.333V853.125H262.743V864ZM279.551 859.32C280.586 859.515 281.786 859.89 281.786 861C281.786 862.05 280.751 862.635 279.461 862.635C277.961 862.635 277.001 861.885 276.671 860.4H274.796C275.021 862.785 276.791 864.195 279.371 864.195C281.516 864.195 283.691 863.07 283.691 860.88C283.691 858.69 281.876 858 279.971 857.625L278.636 857.37C277.706 857.19 277.016 856.77 277.016 855.93C277.016 854.865 278.261 854.49 279.101 854.49C280.166 854.49 281.306 854.865 281.621 856.17H283.466C283.031 853.905 281.351 852.93 279.206 852.93C277.211 852.93 275.096 853.95 275.096 855.99C275.096 857.835 276.521 858.72 278.231 859.065L279.551 859.32ZM285.528 864H293.223V862.395H287.433V859.2H292.908V857.625H287.433V854.715H293.223V853.125H285.528V864ZM301.671 864H303.816L301.326 859.065C302.676 858.6 303.366 857.655 303.366 856.26C303.366 853.845 301.731 853.125 298.521 853.125H295.056V864H296.961V859.425H298.806C299.001 859.425 299.196 859.425 299.376 859.41L301.671 864ZM298.791 854.655C300.291 854.655 301.416 854.85 301.416 856.275C301.416 857.58 300.486 857.91 298.851 857.91H296.961V854.655H298.791ZM304.12 853.125L307.885 864H309.925L313.645 853.125H311.635L308.95 861.75L306.19 853.125H304.12ZM316.956 853.125H315.051V864H316.956V853.125ZM326.907 860.385C326.577 861.87 325.527 862.635 324.057 862.635C322.317 862.635 320.982 861.165 320.982 858.525C320.982 855.9 322.347 854.49 324.072 854.49C325.482 854.49 326.547 855.27 326.877 856.74H328.707C328.272 854.31 326.547 852.93 324.132 852.93C320.982 852.93 319.017 855.105 319.017 858.525C319.017 861.93 320.862 864.195 324.042 864.195C326.547 864.195 328.287 862.815 328.737 860.385H326.907ZM330.636 864H338.331V862.395H332.541V859.2H338.016V857.625H332.541V854.715H338.331V853.125H330.636V864Z" fill="#FEFEFB"/>
<path d="M41.095 853.125V864H43V859.89H44.71C47.275 859.89 49.3 859.29 49.3 856.545C49.3 853.515 47.065 853.125 44.68 853.125H41.095ZM44.68 854.655C46.015 854.655 47.32 854.79 47.32 856.56C47.32 858.12 46.21 858.33 44.77 858.33H43V854.655H44.68ZM57.4729 864H59.6179L57.1279 859.065C58.4779 858.6 59.1679 857.655 59.1679 856.26C59.1679 853.845 57.5329 853.125 54.3229 853.125H50.8579V864H52.7629V859.425H54.6079C54.8029 859.425 54.9979 859.425 55.1779 859.41L57.4729 864ZM54.5929 854.655C56.0929 854.655 57.2179 854.85 57.2179 856.275C57.2179 857.58 56.2879 857.91 54.6529 857.91H52.7629V854.655H54.5929ZM63.2436 853.125H61.3386V864H63.2436V853.125ZM64.6601 853.125L68.4251 864H70.4651L74.1851 853.125H72.1751L69.4901 861.75L66.7301 853.125H64.6601ZM73.2947 864H75.2447L76.0847 861.585H80.4947L81.3497 864H83.4347L79.3547 853.125H77.3447L73.2947 864ZM78.2747 855.33L79.9247 859.995H76.6397L78.2747 855.33ZM91.6809 860.385C91.3509 861.87 90.3009 862.635 88.8309 862.635C87.0909 862.635 85.7559 861.165 85.7559 858.525C85.7559 855.9 87.1209 854.49 88.8459 854.49C90.2559 854.49 91.3209 855.27 91.6509 856.74H93.4809C93.0459 854.31 91.3209 852.93 88.9059 852.93C85.7559 852.93 83.7909 855.105 83.7909 858.525C83.7909 861.93 85.6359 864.195 88.8159 864.195C91.3209 864.195 93.0609 862.815 93.5109 860.385H91.6809ZM93.7123 853.125L97.5973 859.77V864H99.5023V859.8L103.507 853.125H101.362L98.5873 857.985L95.8873 853.125H93.7123ZM108.578 853.125V864H110.483V859.89H112.193C114.758 859.89 116.783 859.29 116.783 856.545C116.783 853.515 114.548 853.125 112.163 853.125H108.578ZM112.163 854.655C113.498 854.655 114.803 854.79 114.803 856.56C114.803 858.12 113.693 858.33 112.253 858.33H110.483V854.655H112.163ZM119.871 858.555C119.871 855.915 121.296 854.49 123.096 854.49C124.896 854.49 126.321 855.915 126.321 858.555C126.321 861.195 124.896 862.635 123.096 862.635C121.296 862.635 119.871 861.195 119.871 858.555ZM128.286 858.555C128.286 855.21 126.291 852.93 123.096 852.93C119.901 852.93 117.906 855.21 117.906 858.555C117.906 861.9 119.901 864.195 123.096 864.195C126.291 864.195 128.286 861.9 128.286 858.555ZM132.25 853.125H130.345V864H137.725V862.395H132.25V853.125ZM141.031 853.125H139.126V864H141.031V853.125ZM150.983 860.385C150.653 861.87 149.603 862.635 148.133 862.635C146.393 862.635 145.058 861.165 145.058 858.525C145.058 855.9 146.423 854.49 148.148 854.49C149.558 854.49 150.623 855.27 150.953 856.74H152.783C152.348 854.31 150.623 852.93 148.208 852.93C145.058 852.93 143.093 855.105 143.093 858.525C143.093 861.93 144.938 864.195 148.118 864.195C150.623 864.195 152.363 862.815 152.813 860.385H150.983ZM153.014 853.125L156.899 859.77V864H158.804V859.8L162.809 853.125H160.664L157.889 857.985L155.189 853.125H153.014Z" fill="#FEFEFB"/>
<path d="M686.781 853.6C686.781 853.6 686.566 852.083 685.904 851.417C685.066 850.541 684.13 850.536 683.7 850.485C680.623 850.261 676.004 850.261 676.004 850.261H675.996C675.996 850.261 671.377 850.261 668.3 850.485C667.87 850.536 666.934 850.541 666.096 851.417C665.434 852.083 665.223 853.6 665.223 853.6C665.223 853.6 665 855.383 665 857.162V858.829C665 860.608 665.219 862.391 665.219 862.391C665.219 862.391 665.434 863.908 666.091 864.574C666.929 865.451 668.029 865.421 668.519 865.515C670.281 865.683 676 865.734 676 865.734C676 865.734 680.623 865.726 683.7 865.507C684.13 865.455 685.066 865.451 685.904 864.574C686.566 863.908 686.781 862.391 686.781 862.391C686.781 862.391 687 860.613 687 858.829V857.162C687 855.383 686.781 853.6 686.781 853.6ZM673.727 860.853V854.67L679.67 857.772L673.727 860.853Z" fill="#FEFEFB"/>
<g clip-path="url(#clip0)">
<path d="M728.976 864.145C728.643 864.914 728.25 865.621 727.793 866.272C727.171 867.158 726.662 867.772 726.27 868.113C725.661 868.672 725.009 868.959 724.311 868.975C723.81 868.975 723.206 868.833 722.503 868.543C721.797 868.256 721.148 868.113 720.555 868.113C719.933 868.113 719.266 868.256 718.553 868.543C717.838 868.833 717.263 868.983 716.822 868.998C716.153 869.027 715.486 868.732 714.82 868.113C714.395 867.742 713.863 867.107 713.226 866.206C712.543 865.245 711.981 864.13 711.541 862.859C711.07 861.486 710.833 860.157 710.833 858.869C710.833 857.395 711.152 856.123 711.79 855.058C712.292 854.202 712.959 853.527 713.794 853.031C714.629 852.535 715.531 852.283 716.503 852.267C717.034 852.267 717.732 852.431 718.598 852.754C719.462 853.079 720.017 853.243 720.26 853.243C720.442 853.243 721.058 853.051 722.103 852.667C723.091 852.312 723.924 852.165 724.607 852.223C726.458 852.372 727.849 853.102 728.774 854.416C727.118 855.419 726.3 856.824 726.316 858.626C726.331 860.03 726.84 861.198 727.841 862.126C728.294 862.556 728.801 862.889 729.365 863.125C729.242 863.48 729.113 863.819 728.976 864.145V864.145ZM724.731 847.44C724.731 848.541 724.329 849.568 723.528 850.519C722.561 851.649 721.392 852.302 720.123 852.199C720.107 852.067 720.098 851.928 720.098 851.782C720.098 850.726 720.558 849.596 721.374 848.672C721.782 848.204 722.3 847.814 722.929 847.504C723.556 847.198 724.15 847.029 724.708 847C724.724 847.147 724.731 847.294 724.731 847.44V847.44Z" fill="#FEFEFB"/>
</g>
<path fill-rule="evenodd" clip-rule="evenodd" d="M770.507 856.752C766.961 854.646 761.112 854.452 757.728 855.48C757.184 855.645 756.609 855.338 756.444 854.794C756.28 854.25 756.586 853.676 757.13 853.511C761.016 852.331 767.475 852.559 771.557 854.982C772.046 855.272 772.206 855.904 771.916 856.392C771.626 856.881 770.995 857.042 770.507 856.752ZM770.391 859.871C770.142 860.274 769.614 860.401 769.211 860.153C766.255 858.336 761.747 857.809 758.25 858.871C757.797 859.008 757.317 858.752 757.18 858.3C757.043 857.846 757.299 857.368 757.752 857.23C761.747 856.018 766.713 856.605 770.109 858.692C770.512 858.94 770.639 859.468 770.391 859.871ZM769.045 862.866C768.847 863.19 768.425 863.292 768.102 863.094C765.519 861.515 762.268 861.159 758.439 862.033C758.07 862.118 757.702 861.887 757.618 861.518C757.533 861.149 757.764 860.781 758.133 860.697C762.324 859.739 765.918 860.151 768.817 861.923C769.14 862.12 769.242 862.543 769.045 862.866ZM764 847C757.925 847 753 851.925 753 858C753 864.075 757.925 869 764 869C770.075 869 775 864.075 775 858C775 851.925 770.075 847 764 847Z" fill="white"/>
<path fill-rule="evenodd" clip-rule="evenodd" d="M1332.89 34.3975H1330.55C1329.69 34.3975 1329 35.0911 1329 35.9467V44.5149C1329 45.3693 1329.69 46.0641 1330.55 46.0641H1341.45C1342.31 46.0641 1343 45.3705 1343 44.5149V35.9467C1343 35.0923 1342.31 34.3975 1341.45 34.3975H1339.11V35.5641H1341.83V44.8975H1330.17V35.5641H1332.89V34.3975Z" fill="#FEFEFB"/>
<path d="M1336.58 30.3142C1336.58 29.992 1336.32 29.7308 1336 29.7308C1335.68 29.7308 1335.42 29.992 1335.42 30.3142V39.2586C1335.42 39.5808 1335.68 39.8419 1336 39.8419C1336.32 39.8419 1336.58 39.5808 1336.58 39.2586V30.3142Z" fill="#FEFEFB"/>
<path d="M1336.41 30.0017C1336.64 29.7739 1336.64 29.4046 1336.41 29.1768C1336.18 28.949 1335.82 28.949 1335.59 29.1768L1333.11 31.6516C1332.88 31.8794 1332.88 32.2488 1333.11 32.4766C1333.34 32.7044 1333.71 32.7044 1333.94 32.4766L1336.41 30.0017Z" fill="#FEFEFB"/>
<path d="M1338.06 32.4766C1338.29 32.7044 1338.66 32.7044 1338.89 32.4766C1339.12 32.2488 1339.12 31.8794 1338.89 31.6516L1336.41 29.1767C1336.18 28.9489 1335.82 28.9489 1335.59 29.1767C1335.36 29.4045 1335.36 29.7739 1335.59 30.0017L1338.06 32.4766Z" fill="#FEFEFB"/>
<defs>
<linearGradient id="paint0_linear" x1="720" y1="0" x2="720" y2="900" gradientUnits="userSpaceOnUse">
<stop stop-color="#BFA8AE"/>
<stop offset="0.229167" stop-color="#B5A3A9"/>
<stop offset="0.453125" stop-color="#C69B93"/>
<stop offset="0.619792" stop-color="#BA918A"/>
<stop offset="0.760417" stop-color="#AC888B"/>
<stop offset="1" stop-color="#A78E97"/>
</linearGradient>
<clipPath id="clip0">
<rect width="22" height="22" fill="white" transform="translate(709 847)"/>
</clipPath>
</defs>
</svg>
