<svg width="1381" height="22" viewBox="0 0 1381 22" fill="none" xmlns="http://www.w3.org/2000/svg">
<path d="M21.7809 6.60039C21.7809 6.60039 21.566 5.08359 20.9043 4.41758C20.0664 3.54102 19.1297 3.53672 18.7 3.48516C15.6234 3.26172 11.0043 3.26172 11.0043 3.26172H10.9957C10.9957 3.26172 6.37656 3.26172 3.3 3.48516C2.87031 3.53672 1.93359 3.54102 1.0957 4.41758C0.433984 5.08359 0.223437 6.60039 0.223437 6.60039C0.223437 6.60039 0 8.38359 0 10.1625V11.8297C0 13.6086 0.219141 15.3918 0.219141 15.3918C0.219141 15.3918 0.433984 16.9086 1.09141 17.5746C1.9293 18.4512 3.0293 18.4211 3.51914 18.5156C5.28086 18.6832 11 18.7348 11 18.7348C11 18.7348 15.6234 18.7262 18.7 18.507C19.1297 18.4555 20.0664 18.4512 20.9043 17.5746C21.566 16.9086 21.7809 15.3918 21.7809 15.3918C21.7809 15.3918 22 13.6129 22 11.8297V10.1625C22 8.38359 21.7809 6.60039 21.7809 6.60039ZM8.72695 13.8535V7.67031L14.6695 10.7727L8.72695 13.8535Z" fill="#FEFEFB"/>
<g clip-path="url(#clip0)">
<path d="M66.9756 17.1447C66.6429 17.9133 66.2491 18.6208 65.7928 19.2713C65.1709 20.158 64.6616 20.7719 64.2692 21.1127C63.6608 21.6722 63.009 21.9587 62.311 21.975C61.8099 21.975 61.2056 21.8324 60.5021 21.5432C59.7964 21.2553 59.1478 21.1127 58.5548 21.1127C57.9328 21.1127 57.2658 21.2553 56.5523 21.5432C55.8377 21.8324 55.2621 21.9832 54.822 21.9981C54.1526 22.0266 53.4855 21.732 52.8195 21.1127C52.3944 20.742 51.8628 20.1064 51.2259 19.2061C50.5426 18.2447 49.9808 17.1297 49.5407 15.8587C49.0693 14.4858 48.833 13.1563 48.833 11.8692C48.833 10.3948 49.1516 9.12321 49.7897 8.0576C50.2912 7.20166 50.9584 6.52647 51.7934 6.03081C52.6284 5.53515 53.5307 5.28256 54.5023 5.2664C55.034 5.2664 55.7311 5.43085 56.5975 5.75405C57.4615 6.07834 58.0162 6.24279 58.2594 6.24279C58.4413 6.24279 59.0575 6.0505 60.1022 5.66714C61.0901 5.31162 61.9239 5.16442 62.607 5.2224C64.4579 5.37178 65.8485 6.10142 66.7733 7.41595C65.1179 8.41896 64.2991 9.82379 64.3154 11.626C64.3303 13.0297 64.8395 14.1979 65.8404 15.1254C66.2939 15.5558 66.8005 15.8885 67.364 16.1248C67.2418 16.4793 67.1128 16.8188 66.9756 17.1447V17.1447ZM62.7306 0.440125C62.7306 1.54038 62.3286 2.56768 61.5274 3.51854C60.5605 4.64892 59.391 5.30211 58.1228 5.19904C58.1067 5.06705 58.0973 4.92813 58.0973 4.78214C58.0973 3.7259 58.5571 2.59552 59.3737 1.67127C59.7813 1.20331 60.2998 0.814209 60.9285 0.503814C61.5559 0.198051 62.1494 0.0289566 62.7075 0C62.7238 0.147086 62.7306 0.294182 62.7306 0.440111V0.440125Z" fill="#FEFEFB"/>
</g>
<path fill-rule="evenodd" clip-rule="evenodd" d="M111.507 9.75168C107.961 7.64595 102.112 7.45234 98.7275 8.47966C98.1839 8.64464 97.6091 8.33779 97.4445 7.79425C97.2798 7.25032 97.5862 6.67591 98.1301 6.51067C102.016 5.33124 108.475 5.55901 112.557 7.98209C113.046 8.27238 113.206 8.9038 112.916 9.39191C112.626 9.8808 111.995 10.042 111.507 9.75168ZM111.391 12.8705C111.142 13.2742 110.614 13.4008 110.211 13.1529C107.255 11.3359 102.747 10.8095 99.2499 11.8711C98.7965 12.0081 98.3175 11.7525 98.1797 11.2997C98.0431 10.8463 98.2988 10.3681 98.7516 10.2302C102.747 9.01781 107.713 9.60496 111.109 11.6915C111.512 11.9398 111.639 12.4678 111.391 12.8705ZM110.045 15.8658C109.847 16.19 109.425 16.2915 109.102 16.094C106.519 14.5152 103.268 14.1587 99.4387 15.0333C99.0697 15.1179 98.7019 14.8867 98.6179 14.5178C98.5333 14.1489 98.7637 13.7811 99.1334 13.6969C103.324 12.7391 106.918 13.1512 109.817 14.9229C110.14 15.1204 110.242 15.5427 110.045 15.8658ZM105 0C98.925 0 94 4.92484 94 10.9998C94 17.0754 98.925 22 105 22C111.075 22 116 17.0754 116 10.9998C116 4.92484 111.075 0 105 0Z" fill="#FEFEFB"/>
<path d="M141.876 8.3V17H143.4V13.712H144.768C146.82 13.712 148.44 13.232 148.44 11.036C148.44 8.612 146.652 8.3 144.744 8.3H141.876ZM144.744 9.524C145.812 9.524 146.856 9.632 146.856 11.048C146.856 12.296 145.968 12.464 144.816 12.464H143.4V9.524H144.744ZM154.978 17H156.694L154.702 13.052C155.782 12.68 156.334 11.924 156.334 10.808C156.334 8.876 155.026 8.3 152.458 8.3H149.686V17H151.21V13.34H152.686C152.842 13.34 152.998 13.34 153.142 13.328L154.978 17ZM152.674 9.524C153.874 9.524 154.774 9.68 154.774 10.82C154.774 11.864 154.03 12.128 152.722 12.128H151.21V9.524H152.674ZM159.595 8.3H158.071V17H159.595V8.3ZM160.728 8.3L163.74 17H165.372L168.348 8.3H166.74L164.592 15.2L162.384 8.3H160.728ZM167.636 17H169.196L169.868 15.068H173.396L174.08 17H175.748L172.484 8.3H170.876L167.636 17ZM171.62 10.064L172.94 13.796H170.312L171.62 10.064ZM182.345 14.108C182.081 15.296 181.241 15.908 180.065 15.908C178.673 15.908 177.605 14.732 177.605 12.62C177.605 10.52 178.697 9.392 180.077 9.392C181.205 9.392 182.057 10.016 182.321 11.192H183.785C183.437 9.248 182.057 8.144 180.125 8.144C177.605 8.144 176.033 9.884 176.033 12.62C176.033 15.344 177.509 17.156 180.053 17.156C182.057 17.156 183.449 16.052 183.809 14.108H182.345ZM183.97 8.3L187.078 13.616V17H188.602V13.64L191.806 8.3H190.09L187.87 12.188L185.71 8.3H183.97ZM195.862 8.3V17H197.386V13.712H198.754C200.806 13.712 202.426 13.232 202.426 11.036C202.426 8.612 200.638 8.3 198.73 8.3H195.862ZM198.73 9.524C199.798 9.524 200.842 9.632 200.842 11.048C200.842 12.296 199.954 12.464 198.802 12.464H197.386V9.524H198.73ZM204.897 12.644C204.897 10.532 206.037 9.392 207.477 9.392C208.917 9.392 210.057 10.532 210.057 12.644C210.057 14.756 208.917 15.908 207.477 15.908C206.037 15.908 204.897 14.756 204.897 12.644ZM211.629 12.644C211.629 9.968 210.033 8.144 207.477 8.144C204.921 8.144 203.325 9.968 203.325 12.644C203.325 15.32 204.921 17.156 207.477 17.156C210.033 17.156 211.629 15.32 211.629 12.644ZM214.8 8.3H213.276V17H219.18V15.716H214.8V8.3ZM221.825 8.3H220.301V17H221.825V8.3ZM229.786 14.108C229.522 15.296 228.682 15.908 227.506 15.908C226.114 15.908 225.046 14.732 225.046 12.62C225.046 10.52 226.138 9.392 227.518 9.392C228.646 9.392 229.498 10.016 229.762 11.192H231.226C230.878 9.248 229.498 8.144 227.566 8.144C225.046 8.144 223.474 9.884 223.474 12.62C223.474 15.344 224.95 17.156 227.494 17.156C229.498 17.156 230.89 16.052 231.25 14.108H229.786ZM231.412 8.3L234.52 13.616V17H236.044V13.64L239.248 8.3H237.532L235.312 12.188L233.152 8.3H231.412Z" fill="#FEFEFB"/>
<path d="M1167.18 17H1168.7V9.572H1171.44V8.3H1164.44V9.572H1167.18V17ZM1172.61 17H1178.77V15.716H1174.14V13.16H1178.52V11.9H1174.14V9.572H1178.77V8.3H1172.61V17ZM1185.53 17H1187.24L1185.25 13.052C1186.33 12.68 1186.88 11.924 1186.88 10.808C1186.88 8.876 1185.58 8.3 1183.01 8.3H1180.24V17H1181.76V13.34H1183.24C1183.39 13.34 1183.55 13.34 1183.69 13.328L1185.53 17ZM1183.22 9.524C1184.42 9.524 1185.32 9.68 1185.32 10.82C1185.32 11.864 1184.58 12.128 1183.27 12.128H1181.76V9.524H1183.22ZM1193.87 17L1196.07 9.956V17H1197.56V8.3H1195.2L1193.1 15.236L1190.99 8.3H1188.62V17H1190.11V9.956L1192.32 17H1193.87ZM1202.79 13.256C1203.62 13.412 1204.58 13.712 1204.58 14.6C1204.58 15.44 1203.75 15.908 1202.72 15.908C1201.52 15.908 1200.75 15.308 1200.48 14.12H1198.98C1199.16 16.028 1200.58 17.156 1202.64 17.156C1204.36 17.156 1206.1 16.256 1206.1 14.504C1206.1 12.752 1204.65 12.2 1203.12 11.9L1202.06 11.696C1201.31 11.552 1200.76 11.216 1200.76 10.544C1200.76 9.692 1201.76 9.392 1202.43 9.392C1203.28 9.392 1204.19 9.692 1204.44 10.736H1205.92C1205.57 8.924 1204.23 8.144 1202.51 8.144C1200.92 8.144 1199.22 8.96 1199.22 10.592C1199.22 12.068 1200.36 12.776 1201.73 13.052L1202.79 13.256ZM1211.8 12.644C1211.8 10.532 1212.94 9.392 1214.38 9.392C1215.82 9.392 1216.96 10.532 1216.96 12.644C1216.96 14.756 1215.82 15.908 1214.38 15.908C1212.94 15.908 1211.8 14.756 1211.8 12.644ZM1218.53 12.644C1218.53 9.968 1216.94 8.144 1214.38 8.144C1211.82 8.144 1210.23 9.968 1210.23 12.644C1210.23 15.32 1211.82 17.156 1214.38 17.156C1216.94 17.156 1218.53 15.32 1218.53 12.644ZM1220.18 17H1221.7V13.16H1225.99V11.9H1221.7V9.572H1226.25V8.3H1220.18V17ZM1233.63 13.256C1234.45 13.412 1235.41 13.712 1235.41 14.6C1235.41 15.44 1234.59 15.908 1233.55 15.908C1232.35 15.908 1231.59 15.308 1231.32 14.12H1229.82C1230 16.028 1231.42 17.156 1233.48 17.156C1235.2 17.156 1236.94 16.256 1236.94 14.504C1236.94 12.752 1235.49 12.2 1233.96 11.9L1232.89 11.696C1232.15 11.552 1231.6 11.216 1231.6 10.544C1231.6 9.692 1232.59 9.392 1233.27 9.392C1234.12 9.392 1235.03 9.692 1235.28 10.736H1236.76C1236.41 8.924 1235.07 8.144 1233.35 8.144C1231.75 8.144 1230.06 8.96 1230.06 10.592C1230.06 12.068 1231.2 12.776 1232.57 13.052L1233.63 13.256ZM1238.41 17H1244.56V15.716H1239.93V13.16H1244.31V11.9H1239.93V9.572H1244.56V8.3H1238.41V17ZM1251.32 17H1253.04L1251.05 13.052C1252.13 12.68 1252.68 11.924 1252.68 10.808C1252.68 8.876 1251.37 8.3 1248.8 8.3H1246.03V17H1247.55V13.34H1249.03C1249.19 13.34 1249.34 13.34 1249.49 13.328L1251.32 17ZM1249.02 9.524C1250.22 9.524 1251.12 9.68 1251.12 10.82C1251.12 11.864 1250.37 12.128 1249.07 12.128H1247.55V9.524H1249.02ZM1253.28 8.3L1256.29 17H1257.92L1260.9 8.3H1259.29L1257.14 15.2L1254.94 8.3H1253.28ZM1263.55 8.3H1262.02V17H1263.55V8.3ZM1271.51 14.108C1271.25 15.296 1270.41 15.908 1269.23 15.908C1267.84 15.908 1266.77 14.732 1266.77 12.62C1266.77 10.52 1267.86 9.392 1269.24 9.392C1270.37 9.392 1271.22 10.016 1271.49 11.192H1272.95C1272.6 9.248 1271.22 8.144 1269.29 8.144C1266.77 8.144 1265.2 9.884 1265.2 12.62C1265.2 15.344 1266.67 17.156 1269.22 17.156C1271.22 17.156 1272.61 16.052 1272.97 14.108H1271.51ZM1274.49 17H1280.65V15.716H1276.02V13.16H1280.4V11.9H1276.02V9.572H1280.65V8.3H1274.49V17Z" fill="#FEFEFB"/>
<path d="M1358.65 11.6835L1367.31 3.0385C1367.9 2.4423 1368.68 2.11438 1369.51 2.11438C1370.35 2.11438 1371.13 2.4423 1371.72 3.0385L1372.41 3.72414L1373.75 2.38268L1373.06 1.69704C1372.11 0.743104 1370.86 0.236328 1369.51 0.236328C1368.17 0.236328 1366.92 0.743104 1365.96 1.69704L1357.31 10.342L1358.65 11.6835Z" fill="#FEFEFB"/>
<path d="M1370.2 5.90246L1368.86 4.56099L1360.21 13.206C1358.98 14.4282 1357.01 14.4282 1355.79 13.206C1354.57 11.9838 1354.57 10.0163 1355.79 8.79406L1363.25 1.34147L1361.94 0L1354.48 7.4526C1352.51 9.42008 1352.51 12.58 1354.48 14.5475C1355.43 15.5014 1356.68 16.0082 1358.03 16.0082C1359.37 16.0082 1360.62 15.5014 1361.58 14.5475L1370.2 5.90246Z" fill="#FEFEFB"/>
<path d="M1378.82 7.45192C1377.87 6.49799 1376.61 5.99121 1375.27 5.99121C1373.93 5.99121 1372.68 6.49799 1371.72 7.45192L1363.07 16.0969L1364.41 17.4384L1373.06 8.79339C1374.29 7.57116 1376.26 7.57116 1377.48 8.79339C1378.08 9.3896 1378.4 10.1647 1378.4 10.9994C1378.4 11.834 1378.08 12.6091 1377.48 13.2053L1370.02 20.6579L1371.36 21.9994L1378.82 14.5468C1380.79 12.5793 1380.79 9.41941 1378.82 7.45192Z" fill="#FEFEFB"/>
<path d="M1374.62 10.3145L1365.97 18.9595C1364.74 20.1817 1362.77 20.1817 1361.55 18.9595L1360.86 18.2738L1359.55 19.6153L1360.24 20.3009C1361.19 21.2549 1362.44 21.7616 1363.79 21.7616C1365.13 21.7616 1366.38 21.2549 1367.34 20.3009L1375.99 11.6559L1374.62 10.3145Z" fill="#FEFEFB"/>
<rect x="1306" y="9" width="2" height="13" fill="#FEFEFB"/>
<rect x="1321" y="9" width="2" height="13" fill="#FEFEFB"/>
<rect x="1326" y="13" width="2" height="9" fill="#FEFEFB"/>
<rect x="1316" y="5" width="2" height="17" fill="#FEFEFB"/>
<rect x="1311" width="2" height="22" fill="#FEFEFB"/>
<defs>
<clipPath id="clip0">
<rect width="22" height="22" fill="white" transform="translate(47)"/>
</clipPath>
</defs>
</svg>
