<svg width="639" height="124" viewBox="0 0 639 124" fill="none" xmlns="http://www.w3.org/2000/svg">
<path d="M163.304 100V22.9785H195.638C203.731 22.9785 210.176 25.1628 214.974 29.5312C219.844 33.8997 222.279 39.7005 222.279 46.9336C222.279 54.1667 219.844 60.0033 214.974 64.4434C210.176 68.8118 203.731 70.9961 195.638 70.9961H172.543V100H163.304ZM172.543 31.1426V62.832H195.209C200.866 62.832 205.235 61.5072 208.314 58.8574C211.465 56.1361 213.041 52.1615 213.041 46.9336C213.041 41.7057 211.465 37.7669 208.314 35.1172C205.235 32.4674 200.866 31.1426 195.209 31.1426H172.543ZM215.782 100L246.397 22.9785H256.065L286.68 100H277.227L268.311 77.2266H234.151L225.235 100H215.782ZM248.868 39.6289L237.159 69.4922H265.196L253.487 39.6289C252.485 36.9792 251.733 34.8307 251.231 33.1836L248.868 39.6289ZM347.859 22.9785V74.1113C347.859 82.6335 345.245 89.3294 340.018 94.1992C334.79 99.069 327.915 101.504 319.393 101.504C310.87 101.504 303.995 99.069 298.768 94.1992C293.54 89.3294 290.926 82.6335 290.926 74.1113V22.9785H300.164V74.6484C300.164 80.0195 301.847 84.4954 305.213 88.0762C308.579 91.6569 313.305 93.4473 319.393 93.4473C325.48 93.4473 330.206 91.6569 333.572 88.0762C336.938 84.4954 338.621 80.0195 338.621 74.6484V22.9785H347.859ZM375.2 32.6465C372.121 34.7233 370.581 37.6595 370.581 41.4551C370.581 45.2507 372.264 48.2943 375.63 50.5859C379.068 52.8776 384.403 54.7038 391.636 56.0645C400.015 57.64 406.245 60.2539 410.327 63.9062C414.409 67.5586 416.45 72.4284 416.45 78.5156C416.45 85.0326 413.872 90.5111 408.716 94.9512C403.56 99.3197 396.864 101.504 388.628 101.504C380.178 101.504 373.231 99.2839 367.788 94.8438C362.417 90.332 359.123 84.6029 357.905 77.6562L366.07 73.3594C367.072 79.9479 369.543 84.9609 373.482 88.3984C377.492 91.7643 382.541 93.4473 388.628 93.4473C394.357 93.4473 398.869 92.0508 402.163 89.2578C405.529 86.4648 407.212 83.099 407.212 79.1602C407.212 74.8633 405.565 71.5332 402.271 69.1699C398.976 66.735 393.856 64.873 386.909 63.584C370.008 60.5046 361.558 53.1283 361.558 41.4551C361.558 35.5827 363.957 30.7845 368.755 27.0605C373.625 23.3366 379.82 21.4746 387.339 21.4746C394.071 21.4746 399.907 23.1576 404.849 26.5234C409.79 29.8177 413.228 34.2936 415.161 39.9512L407.642 44.3555C405.995 39.6289 403.417 35.9766 399.907 33.3984C396.47 30.7487 392.28 29.4238 387.339 29.4238C382.398 29.4238 378.351 30.498 375.2 32.6465ZM429.397 100V22.9785H477.629V31.1426H438.635V56.0645H474.514V64.2285H438.635V91.8359H477.952V100H429.397Z" fill="#FEFEFB"/>
<rect x="1" y="1" width="637" height="122" rx="61" stroke="#FEFEFB" stroke-width="2"/>
</svg>
