<svg width="1440" height="900" viewBox="0 0 1440 900" fill="none" xmlns="http://www.w3.org/2000/svg">
<g clip-path="url(#clip0)">
<rect width="1440" height="256" fill="url(#paint0_linear)" fill-opacity="0.5"/>
<rect x="1440" y="900" width="1440" height="114" transform="rotate(-180 1440 900)" fill="url(#paint1_linear)" fill-opacity="0.5"/>
<path d="M606.541 853.977V852.497H614.641V853.977H611.404V863H609.792V853.977H606.541ZM624.448 852.497V859.265C624.448 860.505 624.067 861.472 623.305 862.165C622.553 862.858 621.567 863.205 620.346 863.205C619.126 863.205 618.139 862.858 617.387 862.165C616.635 861.472 616.259 860.505 616.259 859.265V852.497H617.871V859.221C617.871 859.963 618.091 860.568 618.53 861.037C618.979 861.506 619.585 861.74 620.346 861.74C621.108 861.74 621.709 861.506 622.148 861.037C622.597 860.568 622.822 859.963 622.822 859.221V852.497H624.448ZM633.01 863L630.563 858.576H628.498V863H626.872V852.497H631.208C632.302 852.497 633.166 852.775 633.801 853.332C634.445 853.879 634.767 854.592 634.767 855.471C634.767 856.203 634.543 856.833 634.094 857.36C633.654 857.878 633.049 858.239 632.277 858.444L634.885 863H633.01ZM628.498 853.903V857.17H631.105C632.463 857.17 633.142 856.628 633.142 855.544C633.142 854.45 632.463 853.903 631.105 853.903H628.498ZM636.84 863V852.497H638.495L643.197 859.821C643.442 860.202 643.593 860.466 643.651 860.612V852.497H645.204V863H643.564L638.847 855.676C638.603 855.295 638.451 855.031 638.393 854.885V863H636.84ZM654.681 863V858.781L651.209 852.497H652.997L655.15 856.599C655.287 856.823 655.399 857.058 655.487 857.302L655.809 856.599L657.977 852.497H659.764L656.292 858.781V863H654.681ZM669.146 853.845C670.142 854.87 670.64 856.174 670.64 857.756C670.64 859.338 670.142 860.642 669.146 861.667C668.15 862.692 666.905 863.205 665.411 863.205C663.917 863.205 662.667 862.692 661.661 861.667C660.665 860.642 660.167 859.338 660.167 857.756C660.167 856.174 660.665 854.87 661.661 853.845C662.667 852.81 663.917 852.292 665.411 852.292C666.905 852.292 668.15 852.81 669.146 853.845ZM662.833 860.642C663.516 861.374 664.376 861.74 665.411 861.74C666.446 861.74 667.3 861.374 667.974 860.642C668.648 859.909 668.985 858.947 668.985 857.756C668.985 856.564 668.648 855.603 667.974 854.87C667.3 854.128 666.446 853.757 665.411 853.757C664.376 853.757 663.516 854.128 662.833 854.87C662.159 855.603 661.822 856.564 661.822 857.756C661.822 858.947 662.159 859.909 662.833 860.642ZM680.828 852.497V859.265C680.828 860.505 680.447 861.472 679.685 862.165C678.933 862.858 677.947 863.205 676.726 863.205C675.506 863.205 674.519 862.858 673.767 862.165C673.016 861.472 672.64 860.505 672.64 859.265V852.497H674.251V859.221C674.251 859.963 674.471 860.568 674.91 861.037C675.359 861.506 675.965 861.74 676.726 861.74C677.488 861.74 678.089 861.506 678.528 861.037C678.977 860.568 679.202 859.963 679.202 859.221V852.497H680.828ZM689.39 863L686.943 858.576H684.878V863H683.252V852.497H687.588C688.682 852.497 689.546 852.775 690.181 853.332C690.825 853.879 691.148 854.592 691.148 855.471C691.148 856.203 690.923 856.833 690.474 857.36C690.034 857.878 689.429 858.239 688.657 858.444L691.265 863H689.39ZM684.878 853.903V857.17H687.485C688.843 857.17 689.522 856.628 689.522 855.544C689.522 854.45 688.843 853.903 687.485 853.903H684.878ZM697.812 863V852.497H704.887V853.947H699.438V857.155H704.448V858.591H699.438V863H697.812ZM704.601 863L708.805 852.497H710.417L714.621 863H712.907L711.794 860.07H707.443L706.315 863H704.601ZM709.611 854.343C709.513 854.655 709.396 854.992 709.259 855.354L707.985 858.664H711.252L709.977 855.354L709.611 854.343ZM723.695 859.572L724.94 860.451C724.364 861.398 723.725 862.097 723.021 862.546C722.328 862.985 721.439 863.205 720.355 863.205C718.851 863.205 717.606 862.697 716.62 861.682C715.634 860.656 715.141 859.348 715.141 857.756C715.141 856.174 715.648 854.87 716.664 853.845C717.689 852.81 718.944 852.292 720.429 852.292C721.474 852.292 722.387 852.541 723.168 853.039C723.959 853.527 724.54 854.182 724.911 855.002L723.622 855.939C722.87 854.484 721.796 853.757 720.399 853.757C719.393 853.757 718.539 854.138 717.836 854.899C717.142 855.661 716.796 856.613 716.796 857.756C716.796 858.898 717.133 859.851 717.807 860.612C718.49 861.364 719.35 861.74 720.385 861.74C721.83 861.74 722.933 861.018 723.695 859.572ZM726.91 863V852.497H733.81V853.947H728.536V856.848H733.385V858.283H728.536V861.564H733.854V863H726.91ZM739.771 853.977V852.497H747.872V853.977H744.634V863H743.023V853.977H739.771ZM757.459 853.845C758.455 854.87 758.953 856.174 758.953 857.756C758.953 859.338 758.455 860.642 757.459 861.667C756.463 862.692 755.217 863.205 753.723 863.205C752.229 863.205 750.979 862.692 749.973 861.667C748.977 860.642 748.479 859.338 748.479 857.756C748.479 856.174 748.977 854.87 749.973 853.845C750.979 852.81 752.229 852.292 753.723 852.292C755.217 852.292 756.463 852.81 757.459 853.845ZM751.145 860.642C751.829 861.374 752.688 861.74 753.723 861.74C754.758 861.74 755.613 861.374 756.287 860.642C756.961 859.909 757.298 858.947 757.298 857.756C757.298 856.564 756.961 855.603 756.287 854.87C755.613 854.128 754.758 853.757 753.723 853.757C752.688 853.757 751.829 854.128 751.145 854.87C750.471 855.603 750.134 856.564 750.134 857.756C750.134 858.947 750.471 859.909 751.145 860.642ZM764.709 853.977V852.497H772.81V853.977H769.572V863H767.961V853.977H764.709ZM774.589 863V852.497H776.215V856.906H781.093V852.497H782.719V863H781.093V858.386H776.215V863H774.589ZM785.29 863V852.497H792.189V853.947H786.916V856.848H791.764V858.283H786.916V861.564H792.233V863H785.29ZM799.102 863V852.497H800.728V861.564H805.987V863H799.102ZM807.767 863V852.497H814.666V853.947H809.393V856.848H814.241V858.283H809.393V861.564H814.71V863H807.767ZM816.9 863V852.497H823.975V853.947H818.526V857.155H823.535V858.591H818.526V863H816.9ZM825.359 853.977V852.497H833.459V853.977H830.222V863H828.611V853.977H825.359Z" fill="#FEFEFB"/>
<path d="M1155.49 863V852.497H1157.22L1160.77 861.389L1164.33 852.497H1166.06V863H1164.49V855.72L1163.95 857.214L1161.56 863H1159.99L1157.59 857.214C1157.29 856.394 1157.11 855.896 1157.05 855.72V863H1155.49ZM1167.4 863L1171.6 852.497H1173.21L1177.42 863H1175.7L1174.59 860.07H1170.24L1169.11 863H1167.4ZM1172.41 854.343C1172.31 854.655 1172.19 854.992 1172.05 855.354L1170.78 858.664H1174.05L1172.77 855.354L1172.41 854.343ZM1178.77 863V852.497H1181.8C1183.45 852.497 1184.79 852.956 1185.8 853.874C1186.83 854.792 1187.34 856.086 1187.34 857.756C1187.34 859.426 1186.83 860.72 1185.8 861.638C1184.79 862.546 1183.45 863 1181.8 863H1178.77ZM1181.83 861.535C1183.01 861.535 1183.95 861.218 1184.64 860.583C1185.34 859.938 1185.68 858.996 1185.68 857.756C1185.68 856.516 1185.34 855.578 1184.64 854.943C1183.95 854.299 1183.01 853.977 1181.83 853.977H1180.4V861.535H1181.83ZM1189.41 863V852.497H1196.31V853.947H1191.04V856.848H1195.89V858.283H1191.04V861.564H1196.36V863H1189.41ZM1215.68 852.497L1212.78 863H1211.02L1208.88 854.724L1206.74 863H1204.98L1202.08 852.497H1203.78L1205.64 859.777C1205.76 860.256 1205.84 860.622 1205.89 860.876L1206.15 859.763L1208.03 852.497H1209.73L1211.6 859.763C1211.73 860.251 1211.82 860.622 1211.87 860.876L1212.12 859.777L1213.98 852.497H1215.68ZM1217.25 863V852.497H1218.88V863H1217.25ZM1220.64 853.977V852.497H1228.74V853.977H1225.5V863H1223.89V853.977H1220.64ZM1230.52 863V852.497H1232.15V856.906H1237.03V852.497H1238.65V863H1237.03V858.386H1232.15V863H1230.52ZM1247.32 855.061C1247.32 855.529 1247.54 855.91 1247.98 856.203C1248.43 856.486 1249.13 856.721 1250.08 856.906C1251.23 857.131 1252.08 857.492 1252.62 857.99C1253.18 858.488 1253.46 859.172 1253.46 860.041C1253.46 860.92 1253.11 861.667 1252.41 862.282C1251.7 862.897 1250.77 863.205 1249.62 863.205C1248.42 863.205 1247.45 862.902 1246.71 862.297C1245.96 861.682 1245.5 860.881 1245.32 859.895L1246.74 859.162C1247.04 860.92 1248 861.799 1249.61 861.799C1250.28 861.799 1250.82 861.638 1251.23 861.315C1251.64 860.983 1251.85 860.578 1251.85 860.1C1251.85 859.572 1251.64 859.167 1251.22 858.884C1250.8 858.601 1250.12 858.366 1249.17 858.181C1248.12 857.976 1247.3 857.619 1246.69 857.111C1246.1 856.604 1245.8 855.93 1245.8 855.09C1245.8 854.26 1246.13 853.586 1246.79 853.068C1247.47 852.551 1248.34 852.292 1249.4 852.292C1250.35 852.292 1251.16 852.521 1251.83 852.98C1252.51 853.43 1252.99 854.069 1253.28 854.899L1252 855.646C1251.56 854.348 1250.69 853.698 1249.39 853.698C1248.8 853.698 1248.31 853.82 1247.91 854.064C1247.52 854.299 1247.32 854.631 1247.32 855.061ZM1265.43 857.756C1265.43 858.947 1265.14 859.992 1264.54 860.891C1263.96 861.789 1263.17 862.438 1262.2 862.839C1262.46 863.288 1262.88 863.771 1263.44 864.289L1262.26 865.329C1261.6 864.675 1261.05 863.962 1260.6 863.19C1260.44 863.2 1260.31 863.205 1260.21 863.205C1258.71 863.205 1257.46 862.692 1256.46 861.667C1255.46 860.642 1254.96 859.338 1254.96 857.756C1254.96 856.174 1255.46 854.87 1256.46 853.845C1257.46 852.81 1258.71 852.292 1260.21 852.292C1261.7 852.292 1262.94 852.81 1263.94 853.845C1264.94 854.87 1265.43 856.174 1265.43 857.756ZM1257.63 860.642C1258.31 861.374 1259.17 861.74 1260.21 861.74C1261.24 861.74 1262.09 861.374 1262.77 860.642C1263.44 859.909 1263.78 858.947 1263.78 857.756C1263.78 856.564 1263.44 855.603 1262.77 854.87C1262.09 854.128 1261.24 853.757 1260.21 853.757C1259.17 853.757 1258.31 854.128 1257.63 854.87C1256.95 855.603 1256.62 856.564 1256.62 857.756C1256.62 858.947 1256.95 859.909 1257.63 860.642ZM1275.62 852.497V859.265C1275.62 860.505 1275.24 861.472 1274.48 862.165C1273.73 862.858 1272.74 863.205 1271.52 863.205C1270.3 863.205 1269.31 862.858 1268.56 862.165C1267.81 861.472 1267.43 860.505 1267.43 859.265V852.497H1269.05V859.221C1269.05 859.963 1269.27 860.568 1269.7 861.037C1270.15 861.506 1270.76 861.74 1271.52 861.74C1272.28 861.74 1272.88 861.506 1273.32 861.037C1273.77 860.568 1274 859.963 1274 859.221V852.497H1275.62ZM1276.71 863L1280.92 852.497H1282.53L1286.73 863H1285.02L1283.91 860.07H1279.56L1278.43 863H1276.71ZM1281.72 854.343C1281.63 854.655 1281.51 854.992 1281.37 855.354L1280.1 858.664H1283.36L1282.09 855.354L1281.72 854.343ZM1294.23 863L1291.78 858.576H1289.71V863H1288.09V852.497H1292.42C1293.52 852.497 1294.38 852.775 1295.02 853.332C1295.66 853.879 1295.98 854.592 1295.98 855.471C1295.98 856.203 1295.76 856.833 1295.31 857.36C1294.87 857.878 1294.26 858.239 1293.49 858.444L1296.1 863H1294.23ZM1289.71 853.903V857.17H1292.32C1293.68 857.17 1294.36 856.628 1294.36 855.544C1294.36 854.45 1293.68 853.903 1292.32 853.903H1289.71ZM1298.06 863V852.497H1304.96V853.947H1299.68V856.848H1304.53V858.283H1299.68V861.564H1305V863H1298.06ZM1308.45 855.061C1308.45 855.529 1308.67 855.91 1309.11 856.203C1309.56 856.486 1310.26 856.721 1311.2 856.906C1312.35 857.131 1313.2 857.492 1313.75 857.99C1314.31 858.488 1314.59 859.172 1314.59 860.041C1314.59 860.92 1314.23 861.667 1313.53 862.282C1312.83 862.897 1311.9 863.205 1310.75 863.205C1309.55 863.205 1308.58 862.902 1307.83 862.297C1307.09 861.682 1306.63 860.881 1306.44 859.895L1307.86 859.162C1308.17 860.92 1309.12 861.799 1310.73 861.799C1311.41 861.799 1311.95 861.638 1312.36 861.315C1312.77 860.983 1312.97 860.578 1312.97 860.1C1312.97 859.572 1312.76 859.167 1312.34 858.884C1311.93 858.601 1311.24 858.366 1310.29 858.181C1309.25 857.976 1308.42 857.619 1307.82 857.111C1307.22 856.604 1306.93 855.93 1306.93 855.09C1306.93 854.26 1307.26 853.586 1307.92 853.068C1308.59 852.551 1309.46 852.292 1310.53 852.292C1311.48 852.292 1312.29 852.521 1312.96 852.98C1313.63 853.43 1314.12 854.069 1314.41 854.899L1313.12 855.646C1312.68 854.348 1311.81 853.698 1310.51 853.698C1309.93 853.698 1309.43 853.82 1309.03 854.064C1308.64 854.299 1308.45 854.631 1308.45 855.061ZM1316.78 863V852.497H1321.36C1322.51 852.497 1323.43 852.795 1324.11 853.391C1324.8 853.986 1325.14 854.807 1325.14 855.852C1325.14 856.887 1324.8 857.702 1324.11 858.298C1323.44 858.894 1322.52 859.191 1321.36 859.191H1318.4V863H1316.78ZM1318.4 853.947V857.756H1321.3C1322.02 857.756 1322.56 857.59 1322.94 857.258C1323.33 856.916 1323.53 856.447 1323.53 855.852C1323.53 855.256 1323.33 854.792 1322.94 854.46C1322.56 854.118 1322.02 853.947 1321.3 853.947H1318.4ZM1324.82 863L1329.03 852.497H1330.64L1334.84 863H1333.13L1332.02 860.07H1327.67L1326.54 863H1324.82ZM1329.83 854.343C1329.74 854.655 1329.62 854.992 1329.48 855.354L1328.21 858.664H1331.48L1330.2 855.354L1329.83 854.343ZM1343.92 859.572L1345.16 860.451C1344.59 861.398 1343.95 862.097 1343.24 862.546C1342.55 862.985 1341.66 863.205 1340.58 863.205C1339.07 863.205 1337.83 862.697 1336.84 861.682C1335.86 860.656 1335.36 859.348 1335.36 857.756C1335.36 856.174 1335.87 854.87 1336.89 853.845C1337.91 852.81 1339.17 852.292 1340.65 852.292C1341.7 852.292 1342.61 852.541 1343.39 853.039C1344.18 853.527 1344.76 854.182 1345.13 855.002L1343.85 855.939C1343.09 854.484 1342.02 853.757 1340.62 853.757C1339.62 853.757 1338.76 854.138 1338.06 854.899C1337.37 855.661 1337.02 856.613 1337.02 857.756C1337.02 858.898 1337.36 859.851 1338.03 860.612C1338.71 861.364 1339.57 861.74 1340.61 861.74C1342.05 861.74 1343.16 861.018 1343.92 859.572ZM1347.13 863V852.497H1354.03V853.947H1348.76V856.848H1353.61V858.283H1348.76V861.564H1354.08V863H1347.13Z" fill="#FEFEFB"/>
<path d="M40.2637 833.977V832.497H48.3643V833.977H45.127V843H43.5156V833.977H40.2637ZM50.1438 843V832.497H57.0432V833.947H51.7697V836.848H56.6184V838.283H51.7697V841.564H57.0871V843H50.1438ZM65.4145 843L62.9682 838.576H60.9027V843H59.2768V832.497H63.6127C64.7064 832.497 65.5707 832.775 66.2055 833.332C66.85 833.879 67.1723 834.592 67.1723 835.471C67.1723 836.203 66.9477 836.833 66.4984 837.36C66.059 837.878 65.4535 838.239 64.682 838.444L67.2895 843H65.4145ZM60.9027 833.903V837.17H63.5102C64.8676 837.17 65.5463 836.628 65.5463 835.544C65.5463 834.45 64.8676 833.903 63.5102 833.903H60.9027ZM69.2447 843V832.497H70.9732L74.5182 841.389L78.0777 832.497H79.8062V843H78.2389V835.72L77.6969 837.214L75.3092 843H73.7418L71.3395 837.214C71.0367 836.394 70.8561 835.896 70.7975 835.72V843H69.2447ZM83.8563 835.061C83.8563 835.529 84.076 835.91 84.5154 836.203C84.9646 836.486 85.6629 836.721 86.6102 836.906C87.7625 837.131 88.6121 837.492 89.159 837.99C89.7156 838.488 89.9939 839.172 89.9939 840.041C89.9939 840.92 89.6424 841.667 88.9393 842.282C88.2361 842.897 87.3084 843.205 86.1561 843.205C84.9549 843.205 83.9832 842.902 83.241 842.297C82.4988 841.682 82.035 840.881 81.8494 839.895L83.2703 839.162C83.573 840.92 84.5301 841.799 86.1414 841.799C86.8152 841.799 87.3572 841.638 87.7674 841.315C88.1775 840.983 88.3826 840.578 88.3826 840.1C88.3826 839.572 88.1727 839.167 87.7527 838.884C87.3328 838.601 86.6492 838.366 85.702 838.181C84.657 837.976 83.8318 837.619 83.2264 837.111C82.6307 836.604 82.3328 835.93 82.3328 835.09C82.3328 834.26 82.6648 833.586 83.3289 833.068C84.0027 832.551 84.8719 832.292 85.9363 832.292C86.8836 832.292 87.6941 832.521 88.368 832.98C89.0418 833.43 89.5252 834.069 89.8182 834.899L88.5291 835.646C88.0896 834.348 87.2205 833.698 85.9217 833.698C85.3357 833.698 84.8426 833.82 84.4422 834.064C84.0516 834.299 83.8563 834.631 83.8563 835.061ZM105.345 833.845C106.341 834.87 106.839 836.174 106.839 837.756C106.839 839.338 106.341 840.642 105.345 841.667C104.349 842.692 103.104 843.205 101.61 843.205C100.115 843.205 98.8654 842.692 97.8596 841.667C96.8635 840.642 96.3654 839.338 96.3654 837.756C96.3654 836.174 96.8635 834.87 97.8596 833.845C98.8654 832.81 100.115 832.292 101.61 832.292C103.104 832.292 104.349 832.81 105.345 833.845ZM99.0314 840.642C99.715 841.374 100.574 841.74 101.61 841.74C102.645 841.74 103.499 841.374 104.173 840.642C104.847 839.909 105.184 838.947 105.184 837.756C105.184 836.564 104.847 835.603 104.173 834.87C103.499 834.128 102.645 833.757 101.61 833.757C100.574 833.757 99.715 834.128 99.0314 834.87C98.3576 835.603 98.0207 836.564 98.0207 837.756C98.0207 838.947 98.3576 839.909 99.0314 840.642ZM108.926 843V832.497H116.001V833.947H110.552V837.155H115.562V838.591H110.552V843H108.926ZM124.292 835.061C124.292 835.529 124.512 835.91 124.951 836.203C125.4 836.486 126.098 836.721 127.046 836.906C128.198 837.131 129.048 837.492 129.595 837.99C130.151 838.488 130.429 839.172 130.429 840.041C130.429 840.92 130.078 841.667 129.375 842.282C128.672 842.897 127.744 843.205 126.592 843.205C125.39 843.205 124.419 842.902 123.677 842.297C122.934 841.682 122.471 840.881 122.285 839.895L123.706 839.162C124.009 840.92 124.966 841.799 126.577 841.799C127.251 841.799 127.793 841.638 128.203 841.315C128.613 840.983 128.818 840.578 128.818 840.1C128.818 839.572 128.608 839.167 128.188 838.884C127.768 838.601 127.085 838.366 126.137 838.181C125.093 837.976 124.267 837.619 123.662 837.111C123.066 836.604 122.768 835.93 122.768 835.09C122.768 834.26 123.1 833.586 123.764 833.068C124.438 832.551 125.307 832.292 126.372 832.292C127.319 832.292 128.13 832.521 128.804 832.98C129.477 833.43 129.961 834.069 130.254 834.899L128.965 835.646C128.525 834.348 127.656 833.698 126.357 833.698C125.771 833.698 125.278 833.82 124.878 834.064C124.487 834.299 124.292 834.631 124.292 835.061ZM132.619 843V832.497H139.519V833.947H134.245V836.848H139.094V838.283H134.245V841.564H139.562V843H132.619ZM147.89 843L145.444 838.576H143.378V843H141.752V832.497H146.088C147.182 832.497 148.046 832.775 148.681 833.332C149.325 833.879 149.648 834.592 149.648 835.471C149.648 836.203 149.423 836.833 148.974 837.36C148.534 837.878 147.929 838.239 147.157 838.444L149.765 843H147.89ZM143.378 833.903V837.17H145.986C147.343 837.17 148.022 836.628 148.022 835.544C148.022 834.45 147.343 833.903 145.986 833.903H143.378ZM154.577 843L150.695 832.497H152.409L155.031 839.836C155.187 840.354 155.319 840.798 155.426 841.169L155.807 839.836L158.429 832.497H160.143L156.261 843H154.577ZM161.468 843V832.497H163.094V843H161.468ZM173.721 839.572L174.967 840.451C174.39 841.398 173.751 842.097 173.048 842.546C172.354 842.985 171.466 843.205 170.382 843.205C168.878 843.205 167.633 842.697 166.646 841.682C165.66 840.656 165.167 839.348 165.167 837.756C165.167 836.174 165.675 834.87 166.69 833.845C167.716 832.81 168.971 832.292 170.455 832.292C171.5 832.292 172.413 832.541 173.194 833.039C173.985 833.527 174.566 834.182 174.937 835.002L173.648 835.939C172.896 834.484 171.822 833.757 170.426 833.757C169.42 833.757 168.565 834.138 167.862 834.899C167.169 835.661 166.822 836.613 166.822 837.756C166.822 838.898 167.159 839.851 167.833 840.612C168.516 841.364 169.376 841.74 170.411 841.74C171.856 841.74 172.96 841.018 173.721 839.572ZM176.937 843V832.497H183.836V833.947H178.562V836.848H183.411V838.283H178.562V841.564H183.88V843H176.937Z" fill="#FEFEFB"/>
<path d="M41.2158 863V852.497H45.8008C46.9531 852.497 47.8711 852.795 48.5547 853.391C49.2383 853.986 49.5801 854.807 49.5801 855.852C49.5801 856.887 49.2383 857.702 48.5547 858.298C47.8809 858.894 46.9629 859.191 45.8008 859.191H42.8418V863H41.2158ZM42.8418 853.947V857.756H45.7422C46.4551 857.756 47.002 857.59 47.3828 857.258C47.7734 856.916 47.9688 856.447 47.9688 855.852C47.9688 855.256 47.7734 854.792 47.3828 854.46C47.002 854.118 46.4551 853.947 45.7422 853.947H42.8418ZM57.8049 863L55.3586 858.576H53.2932V863H51.6672V852.497H56.0031C57.0969 852.497 57.9611 852.775 58.5959 853.332C59.2404 853.879 59.5627 854.592 59.5627 855.471C59.5627 856.203 59.3381 856.833 58.8889 857.36C58.4494 857.878 57.8439 858.239 57.0725 858.444L59.6799 863H57.8049ZM53.2932 853.903V857.17H55.9006C57.258 857.17 57.9367 856.628 57.9367 855.544C57.9367 854.45 57.258 853.903 55.9006 853.903H53.2932ZM61.6352 863V852.497H63.2611V863H61.6352ZM68.6734 863L64.7916 852.497H66.5055L69.1275 859.836C69.2838 860.354 69.4156 860.798 69.523 861.169L69.9039 859.836L72.526 852.497H74.2398L70.358 863H68.6734ZM73.4559 863L77.66 852.497H79.2713L83.4754 863H81.7615L80.6482 860.07H76.2977L75.1697 863H73.4559ZM78.4656 854.343C78.368 854.655 78.2508 854.992 78.1141 855.354L76.8396 858.664H80.1063L78.8318 855.354L78.4656 854.343ZM92.5498 859.572L93.7949 860.451C93.2188 861.398 92.5791 862.097 91.876 862.546C91.1826 862.985 90.2939 863.205 89.21 863.205C87.7061 863.205 86.4609 862.697 85.4746 861.682C84.4883 860.656 83.9951 859.348 83.9951 857.756C83.9951 856.174 84.5029 854.87 85.5186 853.845C86.5439 852.81 87.7988 852.292 89.2832 852.292C90.3281 852.292 91.2412 852.541 92.0225 853.039C92.8135 853.527 93.3945 854.182 93.7656 855.002L92.4766 855.939C91.7246 854.484 90.6504 853.757 89.2539 853.757C88.248 853.757 87.3936 854.138 86.6904 854.899C85.9971 855.661 85.6504 856.613 85.6504 857.756C85.6504 858.898 85.9873 859.851 86.6611 860.612C87.3447 861.364 88.2041 861.74 89.2393 861.74C90.6846 861.74 91.7881 861.018 92.5498 859.572ZM97.9475 863V858.781L94.4758 852.497H96.2629L98.4162 856.599C98.5529 856.823 98.6652 857.058 98.7531 857.302L99.0754 856.599L101.243 852.497H103.03L99.5588 858.781V863H97.9475ZM109.021 863V852.497H113.606C114.758 852.497 115.676 852.795 116.36 853.391C117.044 853.986 117.385 854.807 117.385 855.852C117.385 856.887 117.044 857.702 116.36 858.298C115.686 858.894 114.768 859.191 113.606 859.191H110.647V863H109.021ZM110.647 853.947V857.756H113.547C114.26 857.756 114.807 857.59 115.188 857.258C115.579 856.916 115.774 856.447 115.774 855.852C115.774 855.256 115.579 854.792 115.188 854.46C114.807 854.118 114.26 853.947 113.547 853.947H110.647ZM127.895 853.845C128.891 854.87 129.389 856.174 129.389 857.756C129.389 859.338 128.891 860.642 127.895 861.667C126.899 862.692 125.654 863.205 124.16 863.205C122.666 863.205 121.416 862.692 120.41 861.667C119.414 860.642 118.916 859.338 118.916 857.756C118.916 856.174 119.414 854.87 120.41 853.845C121.416 852.81 122.666 852.292 124.16 852.292C125.654 852.292 126.899 852.81 127.895 853.845ZM121.582 860.642C122.265 861.374 123.125 861.74 124.16 861.74C125.195 861.74 126.05 861.374 126.723 860.642C127.397 859.909 127.734 858.947 127.734 857.756C127.734 856.564 127.397 855.603 126.723 854.87C126.05 854.128 125.195 853.757 124.16 853.757C123.125 853.757 122.265 854.128 121.582 854.87C120.908 855.603 120.571 856.564 120.571 857.756C120.571 858.947 120.908 859.909 121.582 860.642ZM131.477 863V852.497H133.103V861.564H138.361V863H131.477ZM140.141 863V852.497H141.767V863H140.141ZM152.394 859.572L153.639 860.451C153.063 861.398 152.423 862.097 151.72 862.546C151.027 862.985 150.138 863.205 149.054 863.205C147.55 863.205 146.305 862.697 145.319 861.682C144.332 860.656 143.839 859.348 143.839 857.756C143.839 856.174 144.347 854.87 145.363 853.845C146.388 852.81 147.643 852.292 149.127 852.292C150.172 852.292 151.085 852.541 151.867 853.039C152.658 853.527 153.239 854.182 153.61 855.002L152.321 855.939C151.569 854.484 150.495 853.757 149.098 853.757C148.092 853.757 147.238 854.138 146.535 854.899C145.841 855.661 145.495 856.613 145.495 857.756C145.495 858.898 145.831 859.851 146.505 860.612C147.189 861.364 148.048 861.74 149.083 861.74C150.529 861.74 151.632 861.018 152.394 859.572ZM157.792 863V858.781L154.32 852.497H156.107L158.26 856.599C158.397 856.823 158.509 857.058 158.597 857.302L158.92 856.599L161.088 852.497H162.875L159.403 858.781V863H157.792Z" fill="#FEFEFB"/>
<path d="M51.0176 112V39.1797H97.6348V46.8984H59.752V72.5938H94.4864V80.3125H59.752V112H51.0176ZM173.555 75.6406C173.555 86.7448 170.169 95.8177 163.399 102.859C156.628 109.901 148.266 113.422 138.313 113.422C128.36 113.422 119.998 109.935 113.227 102.961C106.524 95.9193 103.172 86.8125 103.172 75.6406C103.172 64.4688 106.524 55.362 113.227 48.3203C119.998 41.2786 128.36 37.7578 138.313 37.7578C148.266 37.7578 156.628 41.2786 163.399 48.3203C170.169 55.362 173.555 64.4688 173.555 75.6406ZM119.524 97.4766C124.466 103.029 130.729 105.805 138.313 105.805C145.896 105.805 152.159 103.029 157.102 97.4766C162.112 91.8568 164.617 84.5781 164.617 75.6406C164.617 66.7031 162.112 59.4583 157.102 53.9062C152.159 48.2865 145.896 45.4766 138.313 45.4766C130.729 45.4766 124.466 48.2865 119.524 53.9062C114.581 59.4583 112.11 66.7031 112.11 75.6406C112.11 84.5781 114.581 91.8568 119.524 97.4766ZM184.983 112V39.1797H193.717V104.281H230.28V112H184.983ZM239.473 112V39.1797H248.207V104.281H284.77V112H239.473ZM356.526 75.6406C356.526 86.7448 353.14 95.8177 346.37 102.859C339.599 109.901 331.237 113.422 321.284 113.422C311.33 113.422 302.968 109.935 296.198 102.961C289.495 95.9193 286.143 86.8125 286.143 75.6406C286.143 64.4688 289.495 55.362 296.198 48.3203C302.968 41.2786 311.33 37.7578 321.284 37.7578C331.237 37.7578 339.599 41.2786 346.37 48.3203C353.14 55.362 356.526 64.4688 356.526 75.6406ZM302.495 97.4766C307.437 103.029 313.7 105.805 321.284 105.805C328.867 105.805 335.13 103.029 340.073 97.4766C345.083 91.8568 347.588 84.5781 347.588 75.6406C347.588 66.7031 345.083 59.4583 340.073 53.9062C335.13 48.2865 328.867 45.4766 321.284 45.4766C313.7 45.4766 307.437 48.2865 302.495 53.9062C297.552 59.4583 295.08 66.7031 295.08 75.6406C295.08 84.5781 297.552 91.8568 302.495 97.4766ZM378.821 112L358.305 39.1797H366.938L381.766 94.0234C382.511 97.3411 383.086 99.8802 383.493 101.641L385.219 93.9219L399.54 39.1797H408.883L423.102 93.9219C423.915 97.3073 424.49 99.8802 424.829 101.641L426.657 94.0234L441.383 39.1797H450.016L429.602 112H420.461L404.211 50.0469L387.86 112H378.821ZM476.934 46.8984V39.1797H531.067V46.8984H508.419V112H499.684V46.8984H476.934ZM540.057 112V39.1797H548.792V71.0703H584.745V39.1797H593.479V112H584.745V78.6875H548.792V112H540.057ZM608.665 112V39.1797H654.266V46.8984H617.399V70.4609H651.321V78.1797H617.399V104.281H654.571V112H608.665ZM695.2 112V39.1797H703.935V112H695.2ZM719.12 112V39.1797H728.362L762.995 94.0234C764.688 96.7995 765.737 98.6953 766.144 99.7109V39.1797H774.472V112H765.229L730.597 57.1562C728.904 54.3802 727.854 52.4844 727.448 51.4688V112H719.12ZM801.946 48.3203C799.035 50.2839 797.579 53.0599 797.579 56.6484C797.579 60.237 799.17 63.1146 802.353 65.2812C805.603 67.4479 810.647 69.1745 817.485 70.4609C825.407 71.9505 831.298 74.4219 835.157 77.875C839.017 81.3281 840.946 85.9323 840.946 91.6875C840.946 97.849 838.509 103.029 833.634 107.227C828.759 111.357 822.428 113.422 814.642 113.422C806.652 113.422 800.084 111.323 794.939 107.125C789.86 102.859 786.746 97.4427 785.595 90.875L793.314 86.8125C794.262 93.0417 796.597 97.7812 800.321 101.031C804.113 104.214 808.887 105.805 814.642 105.805C820.058 105.805 824.324 104.484 827.439 101.844C830.621 99.2031 832.212 96.0208 832.212 92.2969C832.212 88.2344 830.655 85.0859 827.54 82.8516C824.426 80.5495 819.584 78.7891 813.017 77.5703C797.038 74.6589 789.048 67.6849 789.048 56.6484C789.048 51.0964 791.316 46.5599 795.853 43.0391C800.457 39.5182 806.314 37.7578 813.423 37.7578C819.788 37.7578 825.306 39.349 829.978 42.5312C834.65 45.6458 837.9 49.8776 839.728 55.2266L832.618 59.3906C831.061 54.9219 828.623 51.4688 825.306 49.0312C822.056 46.526 818.095 45.2734 813.423 45.2734C808.751 45.2734 804.926 46.2891 801.946 48.3203ZM844.046 46.8984V39.1797H898.179V46.8984H875.53V112H866.796V46.8984H844.046ZM950.232 112L932.357 80.4141H915.904V112H907.169V39.1797H936.216C943.325 39.1797 948.979 41.1094 953.177 44.9688C957.443 48.8281 959.575 53.7708 959.575 59.7969C959.575 64.875 957.984 69.2422 954.802 72.8984C951.62 76.487 947.286 78.8229 941.802 79.9062L959.982 112H950.232ZM915.904 46.8984V72.6953H934.591C939.737 72.6953 943.732 71.5781 946.575 69.3438C949.419 67.1094 950.841 63.9271 950.841 59.7969C950.841 55.6667 949.419 52.4844 946.575 50.25C943.732 48.0156 939.737 46.8984 934.591 46.8984H915.904ZM1024.22 39.1797V87.5234C1024.22 95.5807 1021.75 101.911 1016.81 106.516C1011.87 111.12 1005.37 113.422 997.308 113.422C989.251 113.422 982.751 111.12 977.808 106.516C972.865 101.911 970.394 95.5807 970.394 87.5234V39.1797H979.128V88.0312C979.128 93.1094 980.719 97.3411 983.902 100.727C987.084 104.112 991.553 105.805 997.308 105.805C1003.06 105.805 1007.53 104.112 1010.71 100.727C1013.9 97.3411 1015.49 93.1094 1015.49 88.0312V39.1797H1024.22ZM1094.35 90.0625L1100.95 94.8359C1094.45 107.227 1084.16 113.422 1070.08 113.422C1059.99 113.422 1051.63 109.867 1044.99 102.758C1038.36 95.5807 1035.04 86.5417 1035.04 75.6406C1035.04 64.875 1038.53 55.8698 1045.5 48.625C1052.48 41.3802 1060.87 37.7578 1070.69 37.7578C1077.73 37.7578 1083.89 39.4505 1089.17 42.8359C1094.52 46.1536 1098.48 50.6901 1101.06 56.4453L1094.25 61.2188C1089.31 50.724 1081.39 45.4766 1070.49 45.4766C1063.04 45.4766 1056.74 48.388 1051.6 54.2109C1046.52 59.9661 1043.98 67.1094 1043.98 75.6406C1043.98 84.3073 1046.42 91.5182 1051.29 97.2734C1056.17 102.961 1062.5 105.805 1070.28 105.805C1075.77 105.805 1080.44 104.586 1084.3 102.148C1088.16 99.6432 1091.51 95.6146 1094.35 90.0625ZM1105.58 46.8984V39.1797H1159.71V46.8984H1137.06V112H1128.33V46.8984H1105.58ZM1168.7 112V39.1797H1177.44V112H1168.7ZM1259.35 75.6406C1259.35 86.7448 1255.96 95.8177 1249.19 102.859C1242.42 109.901 1234.06 113.422 1224.11 113.422C1214.15 113.422 1205.79 109.935 1199.02 102.961C1192.32 95.9193 1188.96 86.8125 1188.96 75.6406C1188.96 64.4688 1192.32 55.362 1199.02 48.3203C1205.79 41.2786 1214.15 37.7578 1224.11 37.7578C1234.06 37.7578 1242.42 41.2786 1249.19 48.3203C1255.96 55.362 1259.35 64.4688 1259.35 75.6406ZM1205.32 97.4766C1210.26 103.029 1216.52 105.805 1224.11 105.805C1231.69 105.805 1237.95 103.029 1242.89 97.4766C1247.9 91.8568 1250.41 84.5781 1250.41 75.6406C1250.41 66.7031 1247.9 59.4583 1242.89 53.9062C1237.95 48.2865 1231.69 45.4766 1224.11 45.4766C1216.52 45.4766 1210.26 48.2865 1205.32 53.9062C1200.37 59.4583 1197.9 66.7031 1197.9 75.6406C1197.9 84.5781 1200.37 91.8568 1205.32 97.4766ZM1270.78 112V39.1797H1280.02L1314.65 94.0234C1316.34 96.7995 1317.39 98.6953 1317.8 99.7109V39.1797H1326.13V112H1316.88L1282.25 57.1562C1280.56 54.3802 1279.51 52.4844 1279.1 51.4688V112H1270.78ZM1353.6 48.3203C1350.69 50.2839 1349.23 53.0599 1349.23 56.6484C1349.23 60.237 1350.83 63.1146 1354.01 65.2812C1357.26 67.4479 1362.3 69.1745 1369.14 70.4609C1377.06 71.9505 1382.95 74.4219 1386.81 77.875C1390.67 81.3281 1392.6 85.9323 1392.6 91.6875C1392.6 97.849 1390.16 103.029 1385.29 107.227C1380.41 111.357 1374.08 113.422 1366.3 113.422C1358.31 113.422 1351.74 111.323 1346.59 107.125C1341.52 102.859 1338.4 97.4427 1337.25 90.875L1344.97 86.8125C1345.92 93.0417 1348.25 97.7812 1351.98 101.031C1355.77 104.214 1360.54 105.805 1366.3 105.805C1371.71 105.805 1375.98 104.484 1379.09 101.844C1382.28 99.2031 1383.87 96.0208 1383.87 92.2969C1383.87 88.2344 1382.31 85.0859 1379.2 82.8516C1376.08 80.5495 1371.24 78.7891 1364.67 77.5703C1348.69 74.6589 1340.7 67.6849 1340.7 56.6484C1340.7 51.0964 1342.97 46.5599 1347.51 43.0391C1352.11 39.5182 1357.97 37.7578 1365.08 37.7578C1371.44 37.7578 1376.96 39.349 1381.63 42.5312C1386.3 45.6458 1389.55 49.8776 1391.38 55.2266L1384.27 59.3906C1382.72 54.9219 1380.28 51.4688 1376.96 49.0312C1373.71 46.526 1369.75 45.2734 1365.08 45.2734C1360.41 45.2734 1356.58 46.2891 1353.6 48.3203ZM162.513 138.898V131.18H216.646V138.898H193.997V204H185.263V138.898H162.513ZM287.894 167.641C287.894 178.745 284.508 187.818 277.738 194.859C270.967 201.901 262.605 205.422 252.652 205.422C242.699 205.422 234.337 201.935 227.566 194.961C220.863 187.919 217.511 178.812 217.511 167.641C217.511 156.469 220.863 147.362 227.566 140.32C234.337 133.279 242.699 129.758 252.652 129.758C262.605 129.758 270.967 133.279 277.738 140.32C284.508 147.362 287.894 156.469 287.894 167.641ZM233.863 189.477C238.805 195.029 245.068 197.805 252.652 197.805C260.235 197.805 266.498 195.029 271.441 189.477C276.451 183.857 278.956 176.578 278.956 167.641C278.956 158.703 276.451 151.458 271.441 145.906C266.498 140.286 260.235 137.477 252.652 137.477C245.068 137.477 238.805 140.286 233.863 145.906C228.92 151.458 226.449 158.703 226.449 167.641C226.449 176.578 228.92 183.857 233.863 189.477ZM379.812 131.18V179.523C379.812 187.581 377.341 193.911 372.398 198.516C367.455 203.12 360.955 205.422 352.898 205.422C344.841 205.422 338.341 203.12 333.398 198.516C328.455 193.911 325.984 187.581 325.984 179.523V131.18H334.718V180.031C334.718 185.109 336.309 189.341 339.492 192.727C342.674 196.112 347.143 197.805 352.898 197.805C358.653 197.805 363.122 196.112 366.304 192.727C369.486 189.341 371.078 185.109 371.078 180.031V131.18H379.812ZM393.88 204V131.18H403.123L437.755 186.023C439.448 188.799 440.498 190.695 440.904 191.711V131.18H449.232V204H439.99L405.357 149.156C403.664 146.38 402.615 144.484 402.209 143.469V204H393.88ZM464.316 204V131.18H473.05V196.281H509.613V204H464.316ZM581.369 167.641C581.369 178.745 577.983 187.818 571.213 194.859C564.442 201.901 556.08 205.422 546.127 205.422C536.174 205.422 527.812 201.935 521.041 194.961C514.338 187.919 510.986 178.812 510.986 167.641C510.986 156.469 514.338 147.362 521.041 140.32C527.812 133.279 536.174 129.758 546.127 129.758C556.08 129.758 564.442 133.279 571.213 140.32C577.983 147.362 581.369 156.469 581.369 167.641ZM527.338 189.477C532.28 195.029 538.543 197.805 546.127 197.805C553.71 197.805 559.973 195.029 564.916 189.477C569.926 183.857 572.431 176.578 572.431 167.641C572.431 158.703 569.926 151.458 564.916 145.906C559.973 140.286 553.71 137.477 546.127 137.477C538.543 137.477 532.28 140.286 527.338 145.906C522.395 151.458 519.924 158.703 519.924 167.641C519.924 176.578 522.395 183.857 527.338 189.477ZM650.078 182.062L656.68 186.836C650.18 199.227 639.888 205.422 625.805 205.422C615.716 205.422 607.354 201.867 600.719 194.758C594.083 187.581 590.765 178.542 590.765 167.641C590.765 156.875 594.252 147.87 601.226 140.625C608.2 133.38 616.596 129.758 626.414 129.758C633.456 129.758 639.617 131.451 644.898 134.836C650.247 138.154 654.208 142.69 656.781 148.445L649.976 153.219C645.034 142.724 637.112 137.477 626.211 137.477C618.763 137.477 612.466 140.388 607.32 146.211C602.242 151.966 599.703 159.109 599.703 167.641C599.703 176.307 602.14 183.518 607.015 189.273C611.89 194.961 618.221 197.805 626.008 197.805C631.492 197.805 636.164 196.586 640.023 194.148C643.883 191.643 647.234 187.615 650.078 182.062ZM667.396 204V131.18H676.131V164.391L682.224 157.688L707.31 131.18H718.279L692.889 158.094L720.31 204H710.154L686.693 164.695L676.131 175.766V204H667.396ZM748.955 138.898V131.18H803.088V138.898H780.44V204H771.705V138.898H748.955ZM812.078 204V131.18H820.813V163.07H856.766V131.18H865.5V204H856.766V170.688H820.813V204H812.078ZM880.686 204V131.18H926.287V138.898H889.42V162.461H923.342V170.18H889.42V196.281H926.592V204H880.686ZM960.01 138.898V131.18H1014.14V138.898H991.495V204H982.76V138.898H960.01ZM1066.2 204L1048.32 172.414H1031.87V204H1023.13V131.18H1052.18C1059.29 131.18 1064.94 133.109 1069.14 136.969C1073.41 140.828 1075.54 145.771 1075.54 151.797C1075.54 156.875 1073.95 161.242 1070.77 164.898C1067.58 168.487 1063.25 170.823 1057.77 171.906L1075.95 204H1066.2ZM1031.87 138.898V164.695H1050.56C1055.7 164.695 1059.7 163.578 1062.54 161.344C1065.38 159.109 1066.81 155.927 1066.81 151.797C1066.81 147.667 1065.38 144.484 1062.54 142.25C1059.7 140.016 1055.7 138.898 1050.56 138.898H1031.87ZM1079.05 204L1107.99 131.18H1117.13L1146.08 204H1137.14L1128.71 182.469H1096.41L1087.98 204H1079.05ZM1110.33 146.922L1099.26 175.156H1125.76L1114.69 146.922C1113.75 144.417 1113.03 142.385 1112.56 140.828L1110.33 146.922ZM1205.95 182.062L1212.55 186.836C1206.05 199.227 1195.76 205.422 1181.68 205.422C1171.59 205.422 1163.23 201.867 1156.59 194.758C1149.96 187.581 1146.64 178.542 1146.64 167.641C1146.64 156.875 1150.12 147.87 1157.1 140.625C1164.07 133.38 1172.47 129.758 1182.29 129.758C1189.33 129.758 1195.49 131.451 1200.77 134.836C1206.12 138.154 1210.08 142.69 1212.65 148.445L1205.85 153.219C1200.91 142.724 1192.98 137.477 1182.08 137.477C1174.63 137.477 1168.34 140.388 1163.19 146.211C1158.11 151.966 1155.57 159.109 1155.57 167.641C1155.57 176.307 1158.01 183.518 1162.89 189.273C1167.76 194.961 1174.09 197.805 1181.88 197.805C1187.36 197.805 1192.04 196.586 1195.9 194.148C1199.75 191.643 1203.11 187.615 1205.95 182.062ZM1223.27 204V131.18H1232V164.391L1238.1 157.688L1263.18 131.18H1274.15L1248.76 158.094L1276.18 204H1266.03L1242.57 164.695L1232 175.766V204H1223.27Z" fill="#FEFEFB"/>
<line x1="1401" y1="843" x2="1401" y2="864" stroke="#FEFEFB" stroke-width="2"/>
<line x1="1397" y1="846" x2="1397" y2="864" stroke="#FEFEFB" stroke-width="2"/>
<line x1="1393" y1="849" x2="1393" y2="864" stroke="#FEFEFB" stroke-width="2"/>
<line x1="1389" y1="852" x2="1389" y2="864" stroke="#FEFEFB" stroke-width="2"/>
<line x1="1385" y1="855" x2="1385" y2="864" stroke="#FEFEFB" stroke-width="2"/>
<line x1="1381.25" y1="858" x2="1381.25" y2="864" stroke="#FEFEFB" stroke-width="2"/>
</g>
<defs>
<linearGradient id="paint0_linear" x1="720" y1="0" x2="720" y2="256" gradientUnits="userSpaceOnUse">
<stop/>
<stop offset="1" stop-opacity="0"/>
</linearGradient>
<linearGradient id="paint1_linear" x1="2160" y1="900" x2="2160" y2="1014" gradientUnits="userSpaceOnUse">
<stop/>
<stop offset="1" stop-opacity="0"/>
</linearGradient>
<clipPath id="clip0">
<rect width="1440" height="900" fill="white"/>
</clipPath>
</defs>
</svg>
